<svg xmlns="http://www.w3.org/2000/svg" viewBox="0 0 392.4 392.4"><defs><style>.cls-1{fill:#231f20;}</style></defs><g id="Layer_2" data-name="Layer 2"><g id="Layer_1-2" data-name="Layer 1"><path class="cls-1" d="M308.31,0H219.87a84.18,84.18,0,0,0-84.09,84.09V122.2a13.59,13.59,0,0,1-13.58,13.57H84.1A84.2,84.2,0,0,0,0,219.87V308.3a84.2,84.2,0,0,0,84.1,84.1h88.43a84.19,84.19,0,0,0,84.09-84.1V270.2a13.6,13.6,0,0,1,13.58-13.58h38.11a84.18,84.18,0,0,0,84.09-84.09V84.09A84.18,84.18,0,0,0,308.31,0Zm31.85,172.53a31.89,31.89,0,0,1-31.85,31.85H270.2a65.89,65.89,0,0,0-65.82,65.82v38.1a31.89,31.89,0,0,1-31.85,31.85H84.1A31.88,31.88,0,0,1,52.25,308.3V219.87A31.88,31.88,0,0,1,84.1,188h38.1A65.9,65.9,0,0,0,188,122.2V84.09a31.89,31.89,0,0,1,31.85-31.85h88.44a31.89,31.89,0,0,1,31.85,31.85Z"/></g></g></svg>