<svg width="56" height="56" viewBox="0 0 56 56" fill="none" xmlns="http://www.w3.org/2000/svg">
<mask id="path-1-inside-1_178_119" fill="white">
<path fill-rule="evenodd" clip-rule="evenodd" d="M42.7342 1.31052C45.8698 1.97907 48.7471 3.53488 51.0235 5.7926C54.1583 8.93346 55.9189 13.1897 55.9189 17.6273C55.9189 22.0649 54.1583 26.3212 51.0235 29.462C50.193 30.3106 49.2733 31.0671 48.2805 31.7184C46.9135 32.6028 45.4224 33.2788 43.8563 33.724C43.7628 33.7474 43.6682 33.7713 43.5726 33.7955C43.1857 33.8934 42.7836 33.9952 42.3815 34.078C41.7132 34.1987 41.0387 34.2824 40.3612 34.3287H40.1989C39.9416 34.341 39.6854 34.3706 39.4321 34.4171V17.1333H43.8563V28.6067C45.2778 28.0174 46.5704 27.1557 47.6611 26.0702C47.8832 25.8536 48.0902 25.6221 48.2805 25.377C49.3369 24.2344 50.1579 22.8949 50.6967 21.435C51.2355 19.975 51.4814 18.4233 51.4205 16.8683C51.3595 15.3134 50.9929 13.7856 50.3415 12.3723C49.6902 10.959 48.7668 9.6879 47.6242 8.63146C46.4816 7.57502 45.1421 6.75398 43.6821 6.21522C42.2222 5.67646 40.6705 5.43052 39.1155 5.49146C35.9751 5.61454 33.0122 6.98009 30.8786 9.28771C28.8386 11.3183 27.6112 14.0248 27.4278 16.8973C27.4215 18.9393 26.6355 20.9017 25.2304 22.3833C24.427 23.1624 23.4629 23.7563 22.4056 24.1231C21.3483 24.49 20.2236 24.621 19.1103 24.5069H19.007C16.353 24.4792 13.7516 25.2478 11.5389 26.7135C9.3261 28.1792 7.60359 30.2747 6.59382 32.7293C5.58404 35.1838 5.33338 37.8848 5.8742 40.4833C6.41503 43.0818 7.7225 45.4584 9.62774 47.3063C10.1796 47.8417 10.7712 48.3347 11.3974 48.781C12.7307 49.7225 14.2328 50.3985 15.8216 50.7719C16.3057 50.901 16.7986 50.9946 17.2963 51.0521V37.7795H21.7205V55.8302C21.6009 55.8447 21.4813 55.861 21.3614 55.8773C20.9937 55.9274 20.624 55.9777 20.2458 55.9777C19.7547 56.0072 19.2622 56.0072 18.7711 55.9777C18.2844 55.9777 17.7978 55.963 17.2963 55.904C17.1869 55.8911 17.0789 55.8789 16.9716 55.8669C16.5875 55.8236 16.2136 55.7814 15.8216 55.7123C15.4382 55.6446 15.0634 55.5511 14.6907 55.4581C14.5759 55.4294 14.4614 55.4008 14.3469 55.3731C13.3369 55.0986 12.3506 54.7435 11.3974 54.3113C7.64703 52.5734 4.60269 49.6067 2.76848 45.9024C0.934265 42.1982 0.420207 37.9786 1.31142 33.9423C2.20264 29.906 4.44567 26.2952 7.6691 23.7077C10.8925 21.1202 14.903 19.7112 19.0365 19.7141H19.3462C19.7845 19.7738 20.2304 19.7403 20.6548 19.6158C21.0792 19.4912 21.4725 19.2785 21.809 18.9914C22.3389 18.34 22.607 17.5146 22.5611 16.6761V16.5434C22.7764 13.3445 23.9067 10.275 25.8173 7.70036C27.7279 5.12574 30.3383 3.15459 33.3376 2.02171C36.3368 0.888822 39.5985 0.641956 42.7342 1.31052ZM32.044 40.6107V50.4914C34.0562 48.4543 35.544 45.9595 36.3798 43.2209C36.4112 43.1295 36.4359 43.0358 36.4535 42.9407V21.5571H32.0293L32.044 40.6107ZM24.6699 49.902V55.0783C25.691 54.7559 26.6787 54.3361 27.6194 53.8247C28.1273 53.5633 28.6197 53.2728 29.0941 52.9547V33.3555H24.6699V49.902Z"/>
</mask>
<path fill-rule="evenodd" clip-rule="evenodd" d="M42.7342 1.31052C45.8698 1.97907 48.7471 3.53488 51.0235 5.7926C54.1583 8.93346 55.9189 13.1897 55.9189 17.6273C55.9189 22.0649 54.1583 26.3212 51.0235 29.462C50.193 30.3106 49.2733 31.0671 48.2805 31.7184C46.9135 32.6028 45.4224 33.2788 43.8563 33.724C43.7628 33.7474 43.6682 33.7713 43.5726 33.7955C43.1857 33.8934 42.7836 33.9952 42.3815 34.078C41.7132 34.1987 41.0387 34.2824 40.3612 34.3287H40.1989C39.9416 34.341 39.6854 34.3706 39.4321 34.4171V17.1333H43.8563V28.6067C45.2778 28.0174 46.5704 27.1557 47.6611 26.0702C47.8832 25.8536 48.0902 25.6221 48.2805 25.377C49.3369 24.2344 50.1579 22.8949 50.6967 21.435C51.2355 19.975 51.4814 18.4233 51.4205 16.8683C51.3595 15.3134 50.9929 13.7856 50.3415 12.3723C49.6902 10.959 48.7668 9.6879 47.6242 8.63146C46.4816 7.57502 45.1421 6.75398 43.6821 6.21522C42.2222 5.67646 40.6705 5.43052 39.1155 5.49146C35.9751 5.61454 33.0122 6.98009 30.8786 9.28771C28.8386 11.3183 27.6112 14.0248 27.4278 16.8973C27.4215 18.9393 26.6355 20.9017 25.2304 22.3833C24.427 23.1624 23.4629 23.7563 22.4056 24.1231C21.3483 24.49 20.2236 24.621 19.1103 24.5069H19.007C16.353 24.4792 13.7516 25.2478 11.5389 26.7135C9.3261 28.1792 7.60359 30.2747 6.59382 32.7293C5.58404 35.1838 5.33338 37.8848 5.8742 40.4833C6.41503 43.0818 7.7225 45.4584 9.62774 47.3063C10.1796 47.8417 10.7712 48.3347 11.3974 48.781C12.7307 49.7225 14.2328 50.3985 15.8216 50.7719C16.3057 50.901 16.7986 50.9946 17.2963 51.0521V37.7795H21.7205V55.8302C21.6009 55.8447 21.4813 55.861 21.3614 55.8773C20.9937 55.9274 20.624 55.9777 20.2458 55.9777C19.7547 56.0072 19.2622 56.0072 18.7711 55.9777C18.2844 55.9777 17.7978 55.963 17.2963 55.904C17.1869 55.8911 17.0789 55.8789 16.9716 55.8669C16.5875 55.8236 16.2136 55.7814 15.8216 55.7123C15.4382 55.6446 15.0634 55.5511 14.6907 55.4581C14.5759 55.4294 14.4614 55.4008 14.3469 55.3731C13.3369 55.0986 12.3506 54.7435 11.3974 54.3113C7.64703 52.5734 4.60269 49.6067 2.76848 45.9024C0.934265 42.1982 0.420207 37.9786 1.31142 33.9423C2.20264 29.906 4.44567 26.2952 7.6691 23.7077C10.8925 21.1202 14.903 19.7112 19.0365 19.7141H19.3462C19.7845 19.7738 20.2304 19.7403 20.6548 19.6158C21.0792 19.4912 21.4725 19.2785 21.809 18.9914C22.3389 18.34 22.607 17.5146 22.5611 16.6761V16.5434C22.7764 13.3445 23.9067 10.275 25.8173 7.70036C27.7279 5.12574 30.3383 3.15459 33.3376 2.02171C36.3368 0.888822 39.5985 0.641956 42.7342 1.31052ZM32.044 40.6107V50.4914C34.0562 48.4543 35.544 45.9595 36.3798 43.2209C36.4112 43.1295 36.4359 43.0358 36.4535 42.9407V21.5571H32.0293L32.044 40.6107ZM24.6699 49.902V55.0783C25.691 54.7559 26.6787 54.3361 27.6194 53.8247C28.1273 53.5633 28.6197 53.2728 29.0941 52.9547V33.3555H24.6699V49.902Z" fill="url(#paint0_linear_178_119)"/>
<path d="M51.0235 5.7926L51.1296 5.68663L51.1291 5.6861L51.0235 5.7926ZM42.7342 1.31052L42.7654 1.16381L42.7654 1.16381L42.7342 1.31052ZM51.0235 29.462L50.9173 29.3561L50.9163 29.3571L51.0235 29.462ZM48.2805 31.7184L48.3619 31.8443L48.3627 31.8438L48.2805 31.7184ZM43.8563 33.724L43.8927 33.8696L43.8973 33.8683L43.8563 33.724ZM43.5726 33.7955L43.6094 33.9409L43.6094 33.9409L43.5726 33.7955ZM42.3815 34.078L42.4082 34.2256L42.4118 34.2249L42.3815 34.078ZM40.3612 34.3287V34.479L40.3714 34.4783L40.3612 34.3287ZM40.1989 34.3287V34.1785L40.1917 34.1788L40.1989 34.3287ZM39.4321 34.4171H39.2821V34.5972L39.4592 34.5647L39.4321 34.4171ZM39.4321 17.1333V16.9833H39.2821V17.1333H39.4321ZM43.8563 17.1333H44.0063V16.9833H43.8563V17.1333ZM43.8563 28.6067H43.7063V28.8313L43.9137 28.7453L43.8563 28.6067ZM47.6611 26.0702L47.5564 25.9627L47.5553 25.9638L47.6611 26.0702ZM48.2805 25.377L48.1699 25.2748L48.162 25.285L48.2805 25.377ZM50.6967 21.435L50.8374 21.4869L50.8374 21.4869L50.6967 21.435ZM51.4205 16.8683L51.5703 16.8625L51.5703 16.8625L51.4205 16.8683ZM50.3415 12.3723L50.2053 12.4351L50.2053 12.4351L50.3415 12.3723ZM47.6242 8.63146L47.5224 8.7416L47.5224 8.7416L47.6242 8.63146ZM43.6821 6.21522L43.7341 6.07449L43.7341 6.07449L43.6821 6.21522ZM39.1155 5.49146L39.1096 5.34158L39.1096 5.34158L39.1155 5.49146ZM30.8786 9.28771L30.9845 9.39412L30.9888 9.38955L30.8786 9.28771ZM27.4278 16.8973L27.2778 16.8878L27.2778 16.8969L27.4278 16.8973ZM25.2304 22.3833L25.3349 22.4911L25.3392 22.4865L25.2304 22.3833ZM22.4056 24.1231L22.4548 24.2648L22.4548 24.2648L22.4056 24.1231ZM19.1103 24.5069L19.1256 24.3577L19.1179 24.3569H19.1103V24.5069ZM19.007 24.5069L19.0055 24.6569H19.007V24.5069ZM5.8742 40.4833L6.02106 40.4527L6.02106 40.4527L5.8742 40.4833ZM9.62774 47.3063L9.73219 47.1986L9.73218 47.1986L9.62774 47.3063ZM11.3974 48.781L11.3104 48.9032L11.3109 48.9036L11.3974 48.781ZM15.8216 50.7719L15.8603 50.6269L15.8559 50.6259L15.8216 50.7719ZM17.2963 51.0521L17.2791 51.2011L17.4463 51.2204V51.0521H17.2963ZM17.2963 37.7795V37.6295H17.1463V37.7795H17.2963ZM21.7205 37.7795H21.8705V37.6295H21.7205V37.7795ZM21.7205 55.8302L21.7386 55.9792L21.8705 55.9632V55.8302H21.7205ZM21.3614 55.8773L21.3412 55.7287L21.3412 55.7287L21.3614 55.8773ZM20.2458 55.9777V55.8274L20.2368 55.828L20.2458 55.9777ZM18.7711 55.9777L18.7801 55.8277H18.7711V55.9777ZM17.2963 55.904L17.3139 55.755L17.3139 55.755L17.2963 55.904ZM16.9716 55.8669L16.9884 55.7178L16.9884 55.7178L16.9716 55.8669ZM15.8216 55.7123L15.7956 55.86L15.7956 55.86L15.8216 55.7123ZM14.6907 55.4581L14.727 55.3125L14.727 55.3125L14.6907 55.4581ZM14.3469 55.3731L14.3075 55.5179L14.3115 55.5189L14.3469 55.3731ZM11.3974 54.3113L11.3344 54.4474L11.3355 54.4479L11.3974 54.3113ZM2.76848 45.9024L2.9029 45.8359L2.9029 45.8359L2.76848 45.9024ZM1.31142 33.9423L1.45789 33.9746L1.45789 33.9746L1.31142 33.9423ZM19.0365 19.7141L19.0364 19.8641H19.0365V19.7141ZM19.3462 19.7141L19.3665 19.5654L19.3564 19.5641H19.3462V19.7141ZM20.6548 19.6158L20.6126 19.4718L20.6126 19.4718L20.6548 19.6158ZM21.809 18.9914L21.9064 19.1056L21.9168 19.0967L21.9254 19.0861L21.809 18.9914ZM22.5611 16.6761H22.4109L22.4114 16.6843L22.5611 16.6761ZM22.5611 16.5434L22.4111 16.5333V16.5434H22.5611ZM25.8173 7.70036L25.9377 7.78975L25.9377 7.78975L25.8173 7.70036ZM33.3376 2.02171L33.2846 1.88138L33.2846 1.88138L33.3376 2.02171ZM32.044 50.4914H31.894V50.8567L32.1508 50.5968L32.044 50.4914ZM32.044 40.6107L32.194 40.6107L32.194 40.6105L32.044 40.6107ZM36.3798 43.2209L36.2378 43.1721L36.2363 43.1771L36.3798 43.2209ZM36.4535 42.9407L36.601 42.9681L36.6035 42.9545V42.9407H36.4535ZM36.4535 21.5571H36.6035V21.4071H36.4535V21.5571ZM32.0293 21.5571V21.4071H31.8792L31.8793 21.5572L32.0293 21.5571ZM24.6699 55.0783H24.5199V55.2829L24.7151 55.2213L24.6699 55.0783ZM27.6194 53.8247L27.5507 53.6913L27.5477 53.693L27.6194 53.8247ZM29.0941 52.9547L29.1777 53.0792L29.2441 53.0347V52.9547H29.0941ZM29.0941 33.3555H29.2441V33.2055H29.0941V33.3555ZM24.6699 33.3555V33.2055H24.5199V33.3555H24.6699ZM51.1291 5.6861C48.8323 3.40813 45.9292 1.83837 42.7654 1.16381L42.7029 1.45722C45.8104 2.11978 48.6619 3.66163 50.9178 5.8991L51.1291 5.6861ZM56.0689 17.6273C56.0689 13.15 54.2925 8.85561 51.1296 5.68664L50.9173 5.89856C54.024 9.0113 55.7689 13.2295 55.7689 17.6273H56.0689ZM51.1296 29.568C54.2925 26.399 56.0689 22.1046 56.0689 17.6273H55.7689C55.7689 22.0252 54.024 26.2433 50.9173 29.3561L51.1296 29.568ZM48.3627 31.8438C49.3646 31.1866 50.2926 30.4233 51.1307 29.567L50.9163 29.3571C50.0933 30.198 49.182 30.9476 48.1982 31.593L48.3627 31.8438ZM43.8973 33.8683C45.4777 33.419 46.9824 32.7369 48.3619 31.8443L48.199 31.5924C46.8445 32.4688 45.367 33.1386 43.8152 33.5797L43.8973 33.8683ZM43.6094 33.9409C43.705 33.9167 43.7994 33.8928 43.8926 33.8695L43.8199 33.5785C43.7262 33.6019 43.6313 33.6259 43.5358 33.6501L43.6094 33.9409ZM42.4118 34.2249C42.8177 34.1413 43.223 34.0387 43.6094 33.9409L43.5358 33.6501C43.1484 33.7481 42.7495 33.849 42.3513 33.931L42.4118 34.2249ZM40.3714 34.4783C41.0545 34.4316 41.7344 34.3473 42.4082 34.2256L42.3549 33.9303C41.692 34.0501 41.023 34.1331 40.3509 34.179L40.3714 34.4783ZM40.1989 34.4787H40.3612V34.1787H40.1989V34.4787ZM39.4592 34.5647C39.706 34.5193 39.9555 34.4905 40.2061 34.4785L40.1917 34.1788C39.9277 34.1915 39.6649 34.2219 39.405 34.2696L39.4592 34.5647ZM39.2821 17.1333V34.4171H39.5821V17.1333H39.2821ZM43.8563 16.9833H39.4321V17.2833H43.8563V16.9833ZM44.0063 28.6067V17.1333H43.7063V28.6067H44.0063ZM47.5553 25.9638C46.4784 27.0356 45.2023 27.8863 43.7988 28.4681L43.9137 28.7453C45.3533 28.1485 46.6623 27.2758 47.7669 26.1765L47.5553 25.9638ZM48.162 25.285C47.976 25.5246 47.7736 25.751 47.5564 25.9627L47.7658 26.1776C47.9929 25.9563 48.2044 25.7195 48.3989 25.469L48.162 25.285ZM50.556 21.383C50.024 22.8245 49.2134 24.147 48.1703 25.2752L48.3906 25.4789C49.4604 24.3218 50.2918 22.9653 50.8374 21.4869L50.556 21.383ZM51.2706 16.8742C51.3307 18.4095 51.0879 19.9416 50.556 21.383L50.8374 21.4869C51.383 20.0085 51.6321 18.4371 51.5703 16.8625L51.2706 16.8742ZM50.2053 12.4351C50.8484 13.8305 51.2104 15.3389 51.2706 16.8742L51.5703 16.8625C51.5086 15.2878 51.1374 13.7407 50.4778 12.3095L50.2053 12.4351ZM47.5224 8.7416C48.6505 9.78466 49.5622 11.0397 50.2053 12.4351L50.4778 12.3095C49.8182 10.8784 48.8831 9.59113 47.726 8.52132L47.5224 8.7416ZM43.6302 6.35594C45.0717 6.88788 46.3942 7.69853 47.5224 8.7416L47.726 8.52132C46.569 7.45151 45.2125 6.62008 43.7341 6.07449L43.6302 6.35594ZM39.1214 5.64135C40.6567 5.58118 42.1888 5.824 43.6302 6.35594L43.7341 6.07449C42.2557 5.52891 40.6843 5.27987 39.1096 5.34158L39.1214 5.64135ZM30.9888 9.38955C33.0953 7.11113 36.0207 5.76286 39.1214 5.64135L39.1096 5.34158C35.9295 5.46621 32.9291 6.84905 30.7685 9.18588L30.9888 9.38955ZM27.5775 16.9069C27.7586 14.0708 28.9703 11.3988 30.9844 9.39403L30.7728 9.1814C28.7068 11.2379 27.4639 13.9787 27.2781 16.8878L27.5775 16.9069ZM25.3392 22.4865C26.7707 20.9772 27.5714 18.978 27.5778 16.8978L27.2778 16.8969C27.2717 18.9006 26.5004 20.8262 25.1216 22.2801L25.3392 22.4865ZM22.4548 24.2648C23.5327 23.8908 24.5157 23.2854 25.3348 22.491L25.126 22.2757C24.3383 23.0395 23.393 23.6217 22.3564 23.9814L22.4548 24.2648ZM19.095 24.6562C20.23 24.7724 21.3768 24.6389 22.4548 24.2648L22.3564 23.9814C21.3198 24.3411 20.2171 24.4695 19.1256 24.3577L19.095 24.6562ZM19.007 24.6569H19.1103V24.3569H19.007V24.6569ZM11.6217 26.8386C13.8095 25.3894 16.3814 24.6295 19.0055 24.6569L19.0086 24.357C16.3246 24.3289 13.6938 25.1062 11.456 26.5885L11.6217 26.8386ZM6.73254 32.7863C7.7309 30.3595 9.43394 28.2877 11.6217 26.8386L11.456 26.5885C9.21826 28.0707 7.47629 30.1899 6.4551 32.6722L6.73254 32.7863ZM6.02106 40.4527C5.48634 37.8836 5.73417 35.2132 6.73254 32.7863L6.4551 32.6722C5.43391 35.1545 5.18041 37.886 5.72735 40.5138L6.02106 40.4527ZM9.73218 47.1986C7.84846 45.3716 6.55577 43.0218 6.02106 40.4527L5.72735 40.5138C6.27429 43.1417 7.59653 45.5452 9.52331 47.414L9.73218 47.1986ZM11.4845 48.6589C10.8644 48.217 10.2787 47.7288 9.73219 47.1986L9.5233 47.414C10.0806 47.9547 10.678 48.4525 11.3104 48.9032L11.4845 48.6589ZM15.8559 50.6259C14.2858 50.2568 12.8015 49.5889 11.4839 48.6585L11.3109 48.9036C12.6599 49.8562 14.1797 50.5401 15.7873 50.9179L15.8559 50.6259ZM17.3136 50.9031C16.8231 50.8465 16.3373 50.7542 15.8603 50.627L15.783 50.9169C16.2741 51.0478 16.7742 51.1428 17.2791 51.2011L17.3136 50.9031ZM17.1463 37.7795V51.0521H17.4463V37.7795H17.1463ZM21.7205 37.6295H17.2963V37.9295H21.7205V37.6295ZM21.8705 55.8302V37.7795H21.5705V55.8302H21.8705ZM21.3816 56.026C21.5017 56.0096 21.6202 55.9935 21.7386 55.9792L21.7025 55.6813C21.5816 55.696 21.4609 55.7124 21.3412 55.7287L21.3816 56.026ZM20.2458 56.1277C20.6358 56.1277 21.0155 56.0758 21.3817 56.026L21.3412 55.7287C20.9719 55.779 20.6121 55.8277 20.2458 55.8277V56.1277ZM18.7621 56.1274C19.2592 56.1573 19.7577 56.1573 20.2548 56.1274L20.2368 55.828C19.7517 55.8571 19.2652 55.8571 18.7801 55.828L18.7621 56.1274ZM17.2788 56.053C17.7884 56.1129 18.2816 56.1277 18.7711 56.1277V55.8277C18.2873 55.8277 17.8071 55.813 17.3139 55.755L17.2788 56.053ZM16.9548 56.0159C17.0621 56.028 17.1698 56.0401 17.2788 56.053L17.3139 55.755C17.204 55.7421 17.0956 55.7299 16.9884 55.7178L16.9548 56.0159ZM15.7956 55.86C16.1928 55.9301 16.5713 55.9727 16.9548 56.0159L16.9884 55.7178C16.6037 55.6744 16.2343 55.6328 15.8477 55.5646L15.7956 55.86ZM14.6543 55.6036C15.0263 55.6964 15.4061 55.7913 15.7956 55.86L15.8477 55.5646C15.4703 55.498 15.1006 55.4057 14.727 55.3125L14.6543 55.6036ZM14.3115 55.5189C14.4255 55.5465 14.5395 55.5749 14.6543 55.6036L14.727 55.3125C14.6123 55.2839 14.4973 55.2552 14.3822 55.2273L14.3115 55.5189ZM11.3355 54.4479C12.296 54.8834 13.2898 55.2412 14.3075 55.5178L14.3862 55.2283C13.384 54.9559 12.4052 54.6036 11.4594 54.1747L11.3355 54.4479ZM2.63405 45.969C4.48343 49.7039 7.55295 52.6951 11.3344 54.4474L11.4605 54.1752C7.74111 52.4516 4.72194 49.5095 2.9029 45.8359L2.63405 45.969ZM1.16495 33.91C0.266365 37.9796 0.784674 42.2341 2.63405 45.969L2.9029 45.8359C1.08386 42.1622 0.574048 37.9775 1.45789 33.9746L1.16495 33.91ZM7.57521 23.5907C4.32511 26.1996 2.06353 29.8403 1.16495 33.91L1.45789 33.9746C2.34174 29.9718 4.56622 26.3908 7.763 23.8247L7.57521 23.5907ZM19.0366 19.5641C14.869 19.5612 10.8253 20.9818 7.57521 23.5907L7.763 23.8247C10.9598 21.2586 14.9371 19.8612 19.0364 19.8641L19.0366 19.5641ZM19.3462 19.5641H19.0365V19.8641H19.3462V19.5641ZM20.6126 19.4718C20.2084 19.5904 19.7838 19.6223 19.3665 19.5654L19.326 19.8627C19.7851 19.9253 20.2524 19.8902 20.697 19.7597L20.6126 19.4718ZM21.7117 18.8773C21.3913 19.1507 21.0167 19.3533 20.6126 19.4718L20.697 19.7597C21.1417 19.6292 21.5538 19.4063 21.9064 19.1056L21.7117 18.8773ZM22.4114 16.6843C22.4552 17.4855 22.199 18.2743 21.6927 18.8968L21.9254 19.0861C22.4788 18.4057 22.7588 17.5436 22.7109 16.6679L22.4114 16.6843ZM22.4111 16.5434V16.6761H22.7111V16.5434H22.4111ZM25.6968 7.61097C23.7691 10.2087 22.6287 13.3058 22.4115 16.5333L22.7108 16.5535C22.9242 13.3833 24.0443 10.3413 25.9377 7.78975L25.6968 7.61097ZM33.2846 1.88138C30.2584 3.02443 27.6246 5.01326 25.6968 7.61097L25.9377 7.78975C27.8312 5.23822 30.4182 3.28475 33.3906 2.16203L33.2846 1.88138ZM42.7654 1.16381C39.6017 0.489257 36.3107 0.738338 33.2846 1.88138L33.3906 2.16203C36.3629 1.03931 39.5954 0.794655 42.7029 1.45722L42.7654 1.16381ZM32.194 50.4914V40.6107H31.894V50.4914H32.194ZM36.2363 43.1771C35.4076 45.8925 33.9324 48.3662 31.9373 50.3859L32.1508 50.5968C34.1799 48.5425 35.6803 46.0265 36.5232 43.2647L36.2363 43.1771ZM36.306 42.9134C36.2897 43.0012 36.267 43.0877 36.2379 43.1721L36.5216 43.2697C36.5555 43.1713 36.582 43.0705 36.601 42.9681L36.306 42.9134ZM36.3035 21.5571V42.9407H36.6035V21.5571H36.3035ZM32.0293 21.7071H36.4535V21.4071H32.0293V21.7071ZM32.194 40.6105L32.1793 21.557L31.8793 21.5572L31.894 40.6108L32.194 40.6105ZM24.8199 55.0783V49.902H24.5199V55.0783H24.8199ZM27.5477 53.693C26.6155 54.1997 25.6366 54.6157 24.6248 54.9352L24.7151 55.2213C25.7453 54.896 26.7419 54.4725 27.691 53.9565L27.5477 53.693ZM29.0106 52.8301C28.5409 53.145 28.0535 53.4326 27.5507 53.6914L27.688 53.9581C28.2011 53.694 28.6984 53.4006 29.1777 53.0792L29.0106 52.8301ZM28.9441 33.3555V52.9547H29.2441V33.3555H28.9441ZM24.6699 33.5055H29.0941V33.2055H24.6699V33.5055ZM24.8199 49.902V33.3555H24.5199V49.902H24.8199Z" fill="#7E7E7E" mask="url(#path-1-inside-1_178_119)"/>
<defs>
<linearGradient id="paint0_linear_178_119" x1="50.8848" y1="-7.55713" x2="4.38477" y2="57.4429" gradientUnits="userSpaceOnUse">
<stop stop-color="#999999" stop-opacity="0.05"/>
<stop offset="0.29" stop-color="#999999" stop-opacity="0.25"/>
<stop offset="1" stop-color="#999999" stop-opacity="0.02"/>
</linearGradient>
</defs>
</svg>
