<svg width="56" height="56" viewBox="0 0 56 56" fill="none" xmlns="http://www.w3.org/2000/svg">
<mask id="path-1-inside-1_220_3" fill="white">
<path fill-rule="evenodd" clip-rule="evenodd" d="M41.8494 0.367644C44.985 1.0362 47.8624 2.59201 50.1387 4.84973C53.2735 7.99059 55.0341 12.2469 55.0341 16.6845C55.0341 21.122 53.2735 25.3783 50.1387 28.5192C49.3082 29.3678 48.3885 30.1243 47.3957 30.7755C46.0287 31.66 44.5376 32.3359 42.9715 32.7811C42.878 32.8045 42.7834 32.8285 42.6878 32.8526C42.3009 32.9506 41.8989 33.0523 41.4968 33.1351C40.8284 33.2558 40.154 33.3395 39.4764 33.3858H39.3142C39.0569 33.3982 38.8007 33.4277 38.5473 33.4743V16.1904H42.9715V27.6638C44.3931 27.0745 45.6856 26.2129 46.7763 25.1273C46.9985 24.9108 47.2054 24.6792 47.3957 24.4342C48.4521 23.2915 49.2732 21.952 49.8119 20.4921C50.3507 19.0322 50.5966 17.4804 50.5357 15.9255C50.4748 14.3705 50.1081 12.8427 49.4568 11.4295C48.8054 10.0162 47.8821 8.74503 46.7394 7.68859C45.5968 6.63215 44.2573 5.81111 42.7974 5.27235C41.3375 4.73359 39.7857 4.48765 38.2307 4.54859C35.0903 4.67166 32.1274 6.03722 29.9939 8.34484C27.9538 10.3755 26.7265 13.0819 26.543 15.9545C26.5368 17.9964 25.7508 19.9588 24.3456 21.4405C23.5423 22.2196 22.5781 22.8134 21.5208 23.1802C20.4635 23.5471 19.3388 23.6781 18.2255 23.5641H18.1223C15.4682 23.5363 12.8669 24.305 10.6541 25.7707C8.44133 27.2364 6.71883 29.3318 5.70905 31.7864C4.69928 34.241 4.44861 36.9419 4.98944 39.5404C5.53026 42.1389 6.83773 44.5155 8.74298 46.3634C9.29488 46.8989 9.88646 47.3919 10.5127 47.8382C11.8459 48.7797 13.348 49.4556 14.9369 49.829C15.421 49.9581 15.9139 50.0518 16.4116 50.1092V36.8367H20.8358V54.8874C20.7161 54.9019 20.5965 54.9182 20.4767 54.9345C20.109 54.9845 19.7392 55.0348 19.361 55.0348C18.8699 55.0643 18.3775 55.0643 17.8863 55.0348C17.3997 55.0348 16.913 55.0201 16.4116 54.9611C16.3021 54.9482 16.1941 54.9361 16.0869 54.924C15.7028 54.8807 15.3288 54.8386 14.9369 54.7694C14.5534 54.7017 14.1787 54.6082 13.8059 54.5152C13.6912 54.4866 13.5766 54.458 13.4621 54.4302C12.4522 54.1557 11.4658 53.8006 10.5127 53.3684C6.76227 51.6305 3.71792 48.6638 1.88371 44.9595C0.0494993 41.2553 -0.464559 37.0357 0.426655 32.9994C1.31787 28.9632 3.5609 25.3523 6.78434 22.7648C10.0078 20.1773 14.0183 18.7683 18.1518 18.7712H18.4615C18.8997 18.8309 19.3456 18.7974 19.77 18.6729C20.1944 18.5484 20.5878 18.3356 20.9243 18.0486C21.4541 17.3971 21.7222 16.5717 21.6764 15.7332V15.6005C21.8917 12.4017 23.0219 9.3321 24.9325 6.75749C26.8431 4.18287 29.4535 2.21172 32.4528 1.07884C35.4521 -0.0540486 38.7138 -0.300915 41.8494 0.367644ZM31.1593 39.6678V49.5485C33.1714 47.5114 34.6592 45.0166 35.495 42.2781C35.5264 42.1866 35.5511 42.093 35.5687 41.9979V20.6143H31.1445L31.1593 39.6678ZM23.7852 48.9591V54.1354C24.8062 53.813 25.7939 53.3933 26.7346 52.8819C27.2425 52.6204 27.7349 52.3299 28.2094 52.0118V32.4126H23.7852V48.9591Z"/>
</mask>
<path fill-rule="evenodd" clip-rule="evenodd" d="M41.8494 0.367644C44.985 1.0362 47.8624 2.59201 50.1387 4.84973C53.2735 7.99059 55.0341 12.2469 55.0341 16.6845C55.0341 21.122 53.2735 25.3783 50.1387 28.5192C49.3082 29.3678 48.3885 30.1243 47.3957 30.7755C46.0287 31.66 44.5376 32.3359 42.9715 32.7811C42.878 32.8045 42.7834 32.8285 42.6878 32.8526C42.3009 32.9506 41.8989 33.0523 41.4968 33.1351C40.8284 33.2558 40.154 33.3395 39.4764 33.3858H39.3142C39.0569 33.3982 38.8007 33.4277 38.5473 33.4743V16.1904H42.9715V27.6638C44.3931 27.0745 45.6856 26.2129 46.7763 25.1273C46.9985 24.9108 47.2054 24.6792 47.3957 24.4342C48.4521 23.2915 49.2732 21.952 49.8119 20.4921C50.3507 19.0322 50.5966 17.4804 50.5357 15.9255C50.4748 14.3705 50.1081 12.8427 49.4568 11.4295C48.8054 10.0162 47.8821 8.74503 46.7394 7.68859C45.5968 6.63215 44.2573 5.81111 42.7974 5.27235C41.3375 4.73359 39.7857 4.48765 38.2307 4.54859C35.0903 4.67166 32.1274 6.03722 29.9939 8.34484C27.9538 10.3755 26.7265 13.0819 26.543 15.9545C26.5368 17.9964 25.7508 19.9588 24.3456 21.4405C23.5423 22.2196 22.5781 22.8134 21.5208 23.1802C20.4635 23.5471 19.3388 23.6781 18.2255 23.5641H18.1223C15.4682 23.5363 12.8669 24.305 10.6541 25.7707C8.44133 27.2364 6.71883 29.3318 5.70905 31.7864C4.69928 34.241 4.44861 36.9419 4.98944 39.5404C5.53026 42.1389 6.83773 44.5155 8.74298 46.3634C9.29488 46.8989 9.88646 47.3919 10.5127 47.8382C11.8459 48.7797 13.348 49.4556 14.9369 49.829C15.421 49.9581 15.9139 50.0518 16.4116 50.1092V36.8367H20.8358V54.8874C20.7161 54.9019 20.5965 54.9182 20.4767 54.9345C20.109 54.9845 19.7392 55.0348 19.361 55.0348C18.8699 55.0643 18.3775 55.0643 17.8863 55.0348C17.3997 55.0348 16.913 55.0201 16.4116 54.9611C16.3021 54.9482 16.1941 54.9361 16.0869 54.924C15.7028 54.8807 15.3288 54.8386 14.9369 54.7694C14.5534 54.7017 14.1787 54.6082 13.8059 54.5152C13.6912 54.4866 13.5766 54.458 13.4621 54.4302C12.4522 54.1557 11.4658 53.8006 10.5127 53.3684C6.76227 51.6305 3.71792 48.6638 1.88371 44.9595C0.0494993 41.2553 -0.464559 37.0357 0.426655 32.9994C1.31787 28.9632 3.5609 25.3523 6.78434 22.7648C10.0078 20.1773 14.0183 18.7683 18.1518 18.7712H18.4615C18.8997 18.8309 19.3456 18.7974 19.77 18.6729C20.1944 18.5484 20.5878 18.3356 20.9243 18.0486C21.4541 17.3971 21.7222 16.5717 21.6764 15.7332V15.6005C21.8917 12.4017 23.0219 9.3321 24.9325 6.75749C26.8431 4.18287 29.4535 2.21172 32.4528 1.07884C35.4521 -0.0540486 38.7138 -0.300915 41.8494 0.367644ZM31.1593 39.6678V49.5485C33.1714 47.5114 34.6592 45.0166 35.495 42.2781C35.5264 42.1866 35.5511 42.093 35.5687 41.9979V20.6143H31.1445L31.1593 39.6678ZM23.7852 48.9591V54.1354C24.8062 53.813 25.7939 53.3933 26.7346 52.8819C27.2425 52.6204 27.7349 52.3299 28.2094 52.0118V32.4126H23.7852V48.9591Z" fill="url(#paint0_linear_220_3)"/>
<path d="M50.1387 4.84973L50.2449 4.74376L50.2443 4.74323L50.1387 4.84973ZM41.8494 0.367644L41.8807 0.220942L41.8807 0.220942L41.8494 0.367644ZM50.1387 28.5192L50.0325 28.4132L50.0315 28.4143L50.1387 28.5192ZM47.3957 30.7755L47.4772 30.9015L47.478 30.9009L47.3957 30.7755ZM42.9715 32.7811L43.0079 32.9267L43.0125 32.9254L42.9715 32.7811ZM42.6878 32.8526L42.7246 32.9981L42.7246 32.9981L42.6878 32.8526ZM41.4968 33.1351L41.5234 33.2827L41.527 33.282L41.4968 33.1351ZM39.4764 33.3858V33.5361L39.4866 33.5354L39.4764 33.3858ZM39.3142 33.3858V33.2356L39.307 33.236L39.3142 33.3858ZM38.5473 33.4743H38.3973V33.6543L38.5744 33.6218L38.5473 33.4743ZM38.5473 16.1904V16.0404H38.3973V16.1904H38.5473ZM42.9715 16.1904H43.1215V16.0404H42.9715V16.1904ZM42.9715 27.6638H42.8215V27.8884L43.0289 27.8024L42.9715 27.6638ZM46.7763 25.1273L46.6716 25.0199L46.6705 25.021L46.7763 25.1273ZM47.3957 24.4342L47.2851 24.332L47.2772 24.3422L47.3957 24.4342ZM49.8119 20.4921L49.9527 20.544L49.9527 20.544L49.8119 20.4921ZM50.5357 15.9255L50.6856 15.9196L50.6856 15.9196L50.5357 15.9255ZM49.4568 11.4295L49.3205 11.4922L49.3205 11.4922L49.4568 11.4295ZM46.7394 7.68859L46.6376 7.79873L46.6376 7.79873L46.7394 7.68859ZM42.7974 5.27235L42.8493 5.13162L42.8493 5.13162L42.7974 5.27235ZM38.2307 4.54859L38.2249 4.39871L38.2249 4.39871L38.2307 4.54859ZM29.9939 8.34484L30.0998 8.45125L30.104 8.44667L29.9939 8.34484ZM26.543 15.9545L26.393 15.9449L26.393 15.954L26.543 15.9545ZM24.3456 21.4405L24.4502 21.5482L24.4545 21.5437L24.3456 21.4405ZM21.5208 23.1802L21.57 23.322L21.57 23.322L21.5208 23.1802ZM18.2255 23.5641L18.2408 23.4149L18.2332 23.4141H18.2255V23.5641ZM18.1223 23.5641L18.1207 23.7141H18.1223V23.5641ZM4.98944 39.5404L5.13629 39.5098L5.13629 39.5098L4.98944 39.5404ZM8.74298 46.3634L8.84743 46.2558L8.84741 46.2558L8.74298 46.3634ZM10.5127 47.8382L10.4256 47.9603L10.4261 47.9607L10.5127 47.8382ZM14.9369 49.829L14.9755 49.684L14.9712 49.683L14.9369 49.829ZM16.4116 50.1092L16.3944 50.2583L16.5616 50.2776V50.1092H16.4116ZM16.4116 36.8367V36.6867H16.2616V36.8367H16.4116ZM20.8358 36.8367H20.9858V36.6867H20.8358V36.8367ZM20.8358 54.8874L20.8538 55.0363L20.9858 55.0203V54.8874H20.8358ZM20.4767 54.9345L20.4564 54.7858L20.4564 54.7858L20.4767 54.9345ZM19.361 55.0348V54.8846L19.3521 54.8851L19.361 55.0348ZM17.8863 55.0348L17.8953 54.8848H17.8863V55.0348ZM16.4116 54.9611L16.4291 54.8121L16.4291 54.8121L16.4116 54.9611ZM16.0869 54.924L16.1037 54.7749L16.1037 54.7749L16.0869 54.924ZM14.9369 54.7694L14.9108 54.9171L14.9108 54.9171L14.9369 54.7694ZM13.8059 54.5152L13.8422 54.3696L13.8422 54.3696L13.8059 54.5152ZM13.4621 54.4302L13.4228 54.575L13.4268 54.576L13.4621 54.4302ZM10.5127 53.3684L10.4496 53.5045L10.4507 53.505L10.5127 53.3684ZM1.88371 44.9595L2.01813 44.893L2.01813 44.893L1.88371 44.9595ZM0.426655 32.9994L0.573127 33.0318L0.573127 33.0318L0.426655 32.9994ZM18.1518 18.7712L18.1517 18.9212H18.1518V18.7712ZM18.4615 18.7712L18.4817 18.6226L18.4716 18.6212H18.4615V18.7712ZM19.77 18.6729L19.7278 18.529L19.7278 18.529L19.77 18.6729ZM20.9243 18.0486L21.0216 18.1627L21.032 18.1538L21.0406 18.1432L20.9243 18.0486ZM21.6764 15.7332H21.5262L21.5266 15.7414L21.6764 15.7332ZM21.6764 15.6005L21.5264 15.5904V15.6005H21.6764ZM24.9325 6.75749L25.053 6.84688L25.053 6.84688L24.9325 6.75749ZM32.4528 1.07884L32.3998 0.938513L32.3998 0.938513L32.4528 1.07884ZM31.1593 49.5485H31.0093V49.9138L31.266 49.6539L31.1593 49.5485ZM31.1593 39.6678L31.3093 39.6678L31.3093 39.6677L31.1593 39.6678ZM35.495 42.2781L35.3531 42.2292L35.3515 42.2343L35.495 42.2781ZM35.5687 41.9979L35.7162 42.0252L35.7187 42.0117V41.9979H35.5687ZM35.5687 20.6143H35.7187V20.4643H35.5687V20.6143ZM31.1445 20.6143V20.4643H30.9944L30.9945 20.6144L31.1445 20.6143ZM23.7852 54.1354H23.6352V54.34L23.8303 54.2784L23.7852 54.1354ZM26.7346 52.8819L26.6659 52.7485L26.663 52.7501L26.7346 52.8819ZM28.2094 52.0118L28.2929 52.1364L28.3594 52.0918V52.0118H28.2094ZM28.2094 32.4126H28.3594V32.2626H28.2094V32.4126ZM23.7852 32.4126V32.2626H23.6352V32.4126H23.7852ZM50.2443 4.74323C47.9476 2.46526 45.0444 0.895497 41.8807 0.220942L41.8181 0.514347C44.9256 1.17691 47.7771 2.71876 50.0331 4.95623L50.2443 4.74323ZM55.1841 16.6845C55.1841 12.2071 53.4077 7.91274 50.2449 4.74377L50.0325 4.95569C53.1393 8.06843 54.8841 12.2866 54.8841 16.6845H55.1841ZM50.2449 28.6251C53.4077 25.4562 55.1841 21.1618 55.1841 16.6845H54.8841C54.8841 21.0823 53.1393 25.3005 50.0325 28.4132L50.2449 28.6251ZM47.478 30.9009C48.4798 30.2438 49.4079 29.4804 50.2459 28.6241L50.0315 28.4143C49.2085 29.2551 48.2972 30.0048 47.3134 30.6501L47.478 30.9009ZM43.0125 32.9254C44.593 32.4761 46.0977 31.794 47.4772 30.9014L47.3142 30.6496C45.9597 31.5259 44.4823 32.1957 42.9305 32.6369L43.0125 32.9254ZM42.7246 32.9981C42.8202 32.9739 42.9146 32.95 43.0079 32.9267L42.9351 32.6356C42.8414 32.6591 42.7465 32.6831 42.651 32.7072L42.7246 32.9981ZM41.527 33.282C41.9329 33.1984 42.3383 33.0958 42.7246 32.9981L42.651 32.7072C42.2636 32.8053 41.8648 32.9062 41.4665 32.9882L41.527 33.282ZM39.4866 33.5354C40.1697 33.4888 40.8497 33.4044 41.5234 33.2827L41.4701 32.9875C40.8072 33.1072 40.1382 33.1902 39.4662 33.2361L39.4866 33.5354ZM39.3142 33.5358H39.4764V33.2358H39.3142V33.5358ZM38.5744 33.6218C38.8212 33.5765 39.0707 33.5477 39.3214 33.5356L39.307 33.236C39.043 33.2487 38.7801 33.279 38.5202 33.3267L38.5744 33.6218ZM38.3973 16.1904V33.4743H38.6973V16.1904H38.3973ZM42.9715 16.0404H38.5473V16.3404H42.9715V16.0404ZM43.1215 27.6638V16.1904H42.8215V27.6638H43.1215ZM46.6705 25.021C45.5937 26.0927 44.3175 26.9435 42.9141 27.5253L43.0289 27.8024C44.4686 27.2056 45.7776 26.333 46.8821 25.2336L46.6705 25.021ZM47.2772 24.3422C47.0912 24.5817 46.8888 24.8082 46.6716 25.0199L46.881 25.2347C47.1081 25.0134 47.3197 24.7766 47.5142 24.5262L47.2772 24.3422ZM49.6712 20.4402C49.1393 21.8816 48.3286 23.2042 47.2856 24.3323L47.5058 24.536C48.5756 23.3789 49.4071 22.0224 49.9527 20.544L49.6712 20.4402ZM50.3858 15.9313C50.446 17.4666 50.2032 18.9987 49.6712 20.4402L49.9527 20.544C50.4982 19.0656 50.7473 17.4942 50.6856 15.9196L50.3858 15.9313ZM49.3205 11.4922C49.9637 12.8876 50.3256 14.396 50.3858 15.9313L50.6856 15.9196C50.6239 14.3449 50.2526 12.7979 49.593 11.3667L49.3205 11.4922ZM46.6376 7.79873C47.7658 8.84179 48.6774 10.0969 49.3205 11.4922L49.593 11.3667C48.9334 9.9355 47.9984 8.64826 46.8413 7.57845L46.6376 7.79873ZM42.7455 5.41307C44.1869 5.94501 45.5095 6.75566 46.6376 7.79873L46.8413 7.57845C45.6842 6.50864 44.3277 5.6772 42.8493 5.13162L42.7455 5.41307ZM38.2366 4.69848C39.7719 4.63831 41.304 4.88113 42.7455 5.41307L42.8493 5.13162C41.3709 4.58604 39.7995 4.337 38.2249 4.39871L38.2366 4.69848ZM30.104 8.44667C32.2106 6.16826 35.136 4.81999 38.2366 4.69848L38.2249 4.39871C35.0447 4.52334 32.0443 5.90617 29.8837 8.24301L30.104 8.44667ZM26.6927 15.964C26.8738 13.128 28.0856 10.456 30.0997 8.45115L29.888 8.23853C27.822 10.295 26.5791 13.0358 26.3933 15.9449L26.6927 15.964ZM24.4545 21.5437C25.8859 20.0343 26.6867 18.0351 26.693 15.9549L26.393 15.954C26.3869 17.9577 25.6156 19.8834 24.2368 21.3372L24.4545 21.5437ZM21.57 23.322C22.6479 22.9479 23.631 22.3425 24.4501 21.5481L24.2412 21.3328C23.4535 22.0966 22.5082 22.6788 21.4717 23.0385L21.57 23.322ZM18.2102 23.7133C19.3453 23.8296 20.492 23.696 21.57 23.322L21.4717 23.0385C20.4351 23.3982 19.3323 23.5267 18.2408 23.4149L18.2102 23.7133ZM18.1223 23.7141H18.2255V23.4141H18.1223V23.7141ZM10.7369 25.8957C12.9247 24.4466 15.4967 23.6866 18.1207 23.7141L18.1238 23.4141C15.4398 23.386 12.809 24.1633 10.5713 25.6456L10.7369 25.8957ZM5.84777 31.8435C6.84614 29.4166 8.54917 27.3448 10.7369 25.8957L10.5713 25.6456C8.33349 27.1279 6.59152 29.247 5.57033 31.7293L5.84777 31.8435ZM5.13629 39.5098C4.60158 36.9407 4.84941 34.2703 5.84777 31.8435L5.57033 31.7293C4.54914 34.2116 4.29565 36.9431 4.84259 39.571L5.13629 39.5098ZM8.84741 46.2558C6.96369 44.4288 5.671 42.079 5.13629 39.5098L4.84259 39.571C5.38952 42.1988 6.71177 44.6023 8.63855 46.4711L8.84741 46.2558ZM10.5997 47.716C9.97967 47.2741 9.39391 46.786 8.84743 46.2558L8.63853 46.4711C9.19586 47.0118 9.79325 47.5096 10.4256 47.9603L10.5997 47.716ZM14.9712 49.683C13.4011 49.314 11.9167 48.646 10.5992 47.7156L10.4261 47.9607C11.7751 48.9133 13.2949 49.5972 14.9025 49.9751L14.9712 49.683ZM16.4288 49.9602C15.9383 49.9036 15.4526 49.8113 14.9755 49.6841L14.8982 49.974C15.3894 50.1049 15.8894 50.1999 16.3944 50.2583L16.4288 49.9602ZM16.2616 36.8367V50.1092H16.5616V36.8367H16.2616ZM20.8358 36.6867H16.4116V36.9867H20.8358V36.6867ZM20.9858 54.8874V36.8367H20.6858V54.8874H20.9858ZM20.4969 55.0831C20.6169 55.0668 20.7355 55.0506 20.8538 55.0363L20.8177 54.7385C20.6968 54.7531 20.5761 54.7696 20.4564 54.7858L20.4969 55.0831ZM19.361 55.1848C19.751 55.1848 20.1308 55.1329 20.4969 55.0831L20.4564 54.7858C20.0871 54.8361 19.7274 54.8848 19.361 54.8848V55.1848ZM17.8773 55.1846C18.3745 55.2144 18.8729 55.2144 19.37 55.1846L19.3521 54.8851C18.8669 54.9142 18.3805 54.9142 17.8953 54.8851L17.8773 55.1846ZM16.3941 55.1101C16.9037 55.17 17.3968 55.1848 17.8863 55.1848V54.8848C17.4025 54.8848 16.9223 54.8702 16.4291 54.8121L16.3941 55.1101ZM16.0701 55.073C16.1774 55.0851 16.285 55.0973 16.3941 55.1101L16.4291 54.8121C16.3192 54.7992 16.2108 54.787 16.1037 54.7749L16.0701 55.073ZM14.9108 54.9171C15.3081 54.9872 15.6866 55.0298 16.0701 55.073L16.1037 54.7749C15.7189 54.7316 15.3496 54.6899 14.9629 54.6217L14.9108 54.9171ZM13.7696 54.6607C14.1415 54.7535 14.5214 54.8484 14.9108 54.9171L14.9629 54.6217C14.5855 54.5551 14.2158 54.4629 13.8422 54.3696L13.7696 54.6607ZM13.4268 54.576C13.5407 54.6036 13.6548 54.6321 13.7696 54.6607L13.8422 54.3696C13.7276 54.341 13.6126 54.3123 13.4975 54.2844L13.4268 54.576ZM10.4507 53.505C11.4112 53.9406 12.4051 54.2984 13.4228 54.575L13.5015 54.2855C12.4992 54.0131 11.5205 53.6607 10.5746 53.2318L10.4507 53.505ZM1.74929 45.0261C3.59867 48.761 6.66819 51.7522 10.4496 53.5045L10.5757 53.2323C6.85635 51.5088 3.83718 48.5666 2.01813 44.893L1.74929 45.0261ZM0.280183 32.9671C-0.618401 37.0367 -0.100092 41.2912 1.74929 45.0261L2.01813 44.893C0.19909 41.2194 -0.310717 37.0347 0.573127 33.0318L0.280183 32.9671ZM6.69044 22.6478C3.44035 25.2567 1.17877 28.8974 0.280183 32.9671L0.573127 33.0318C1.45697 29.0289 3.68145 25.4479 6.87824 22.8818L6.69044 22.6478ZM18.1519 18.6212C13.9842 18.6183 9.94054 20.0389 6.69044 22.6478L6.87824 22.8818C10.075 20.3157 14.0524 18.9184 18.1517 18.9212L18.1519 18.6212ZM18.4615 18.6212H18.1518V18.9212H18.4615V18.6212ZM19.7278 18.529C19.3237 18.6476 18.899 18.6794 18.4817 18.6226L18.4412 18.9198C18.9004 18.9824 19.3676 18.9473 19.8123 18.8168L19.7278 18.529ZM20.8269 17.9345C20.5065 18.2078 20.1319 18.4104 19.7278 18.529L19.8123 18.8168C20.2569 18.6864 20.669 18.4635 21.0216 18.1627L20.8269 17.9345ZM21.5266 15.7414C21.5704 16.5426 21.3142 17.3314 20.8079 17.9539L21.0406 18.1432C21.594 17.4629 21.874 16.6007 21.8262 15.7251L21.5266 15.7414ZM21.5264 15.6005V15.7332H21.8264V15.6005H21.5264ZM24.8121 6.6681C22.8843 9.26581 21.7439 12.3629 21.5267 15.5905L21.826 15.6106C22.0394 12.4404 23.1595 9.3984 25.053 6.84688L24.8121 6.6681ZM32.3998 0.938513C29.3736 2.08156 26.7398 4.07039 24.8121 6.6681L25.053 6.84688C26.9464 4.29535 29.5334 2.34188 32.5058 1.21916L32.3998 0.938513ZM41.8807 0.220942C38.7169 -0.453614 35.426 -0.204533 32.3998 0.938513L32.5058 1.21916C35.4782 0.0964362 38.7106 -0.148216 41.8181 0.514347L41.8807 0.220942ZM31.3093 49.5485V39.6678H31.0093V49.5485H31.3093ZM35.3515 42.2343C34.5228 44.9496 33.0476 47.4233 31.0526 49.4431L31.266 49.6539C33.2952 47.5996 34.7956 45.0836 35.6385 42.3219L35.3515 42.2343ZM35.4212 41.9705C35.405 42.0583 35.3822 42.1448 35.3531 42.2293L35.6368 42.3269C35.6707 42.2284 35.6972 42.1276 35.7162 42.0252L35.4212 41.9705ZM35.4187 20.6143V41.9979H35.7187V20.6143H35.4187ZM31.1445 20.7643H35.5687V20.4643H31.1445V20.7643ZM31.3093 39.6677L31.2945 20.6141L30.9945 20.6144L31.0093 39.6679L31.3093 39.6677ZM23.9352 54.1354V48.9591H23.6352V54.1354H23.9352ZM26.663 52.7501C25.7307 53.2569 24.7519 53.6729 23.74 53.9924L23.8303 54.2784C24.8605 53.9532 25.8571 53.5296 26.8063 53.0137L26.663 52.7501ZM28.1258 51.8872C27.6562 52.2021 27.1687 52.4897 26.666 52.7485L26.8033 53.0152C27.3163 52.7511 27.8136 52.4577 28.2929 52.1364L28.1258 51.8872ZM28.0594 32.4126V52.0118H28.3594V32.4126H28.0594ZM23.7852 32.5626H28.2094V32.2626H23.7852V32.5626ZM23.9352 48.9591V32.4126H23.6352V48.9591H23.9352Z" fill="#88B68F" mask="url(#path-1-inside-1_220_3)"/>
<defs>
<linearGradient id="paint0_linear_220_3" x1="50" y1="-8.5" x2="3.5" y2="56.5" gradientUnits="userSpaceOnUse">
<stop stop-color="#6EC586" stop-opacity="0.05"/>
<stop offset="0.29" stop-color="#6EC586" stop-opacity="0.4"/>
<stop offset="1" stop-color="#6EC586" stop-opacity="0.02"/>
</linearGradient>
</defs>
</svg>
