<svg width="28" height="28" viewBox="0 0 468 468" fill="none" xmlns="http://www.w3.org/2000/svg">
<g clip-path="url(#clip0_180_125)">
<g filter="url(#filter0_i_180_125)">
<rect width="468" height="468" rx="113.455" fill="black"/>
<rect width="468" height="468" rx="113.455" fill="url(#paint0_linear_180_125)"/>
<g filter="url(#filter1_i_180_125)">
<path d="M254.319 289.632V349.024C266.414 336.78 275.357 321.783 280.381 305.322C280.57 304.773 280.718 304.21 280.824 303.638V175.103H254.23L254.319 289.632Z" fill="white"/>
<path d="M209.994 345.479V376.593C216.132 374.655 222.069 372.132 227.723 369.058C230.776 367.487 233.736 365.74 236.588 363.828V246.019H209.994V345.479Z" fill="white"/>
<path d="M368.399 80.3417C354.716 66.7708 337.421 57.419 318.573 53.4003C299.725 49.3817 280.119 50.8655 262.091 57.6752C244.062 64.4849 228.371 76.3333 216.887 91.8091C205.402 107.285 198.608 125.736 197.314 144.964V145.762C197.59 150.801 195.978 155.763 192.794 159.679C190.771 161.404 188.407 162.683 185.856 163.432C183.304 164.18 180.624 164.382 177.99 164.023H176.128C151.282 164.005 127.175 172.475 107.8 188.028C88.4238 203.581 74.9411 225.286 69.5841 249.547C64.2271 273.809 67.3171 299.173 78.3424 321.439C89.3677 343.704 107.667 361.537 130.21 371.983C135.94 374.582 141.868 376.716 147.939 378.366C150.864 379.075 153.79 379.873 156.804 380.405C159.818 380.937 162.654 381.202 165.668 381.557C168.682 381.912 171.607 382 174.533 382C177.485 382.177 180.445 382.177 183.397 382C186.411 382 189.336 381.468 192.262 381.114V272.613H165.668V352.393C162.676 352.047 159.714 351.484 156.804 350.709C147.253 348.464 138.224 344.401 130.21 338.742C126.446 336.059 122.89 333.096 119.573 329.877C108.121 318.77 100.261 304.484 97.0106 288.865C93.7598 273.245 95.2665 257.01 101.336 242.256C107.406 227.502 117.76 214.906 131.06 206.096C144.361 197.285 159.998 192.665 175.951 192.832H176.572C183.263 193.518 190.024 192.73 196.379 190.525C202.735 188.32 208.53 184.75 213.359 180.067C221.805 171.161 226.53 159.365 226.567 147.091C227.67 129.825 235.047 113.557 247.31 101.351C260.135 87.4796 277.945 79.2714 296.821 78.5316C306.168 78.1653 315.496 79.6436 324.271 82.8821C333.046 86.1205 341.098 91.0557 347.966 97.4059C354.835 103.756 360.385 111.397 364.3 119.892C368.215 128.387 370.419 137.57 370.785 146.917C371.152 156.264 369.673 165.591 366.435 174.367C363.196 183.142 358.261 191.194 351.911 198.062C350.767 199.535 349.523 200.927 348.188 202.228C341.632 208.754 333.862 213.933 325.318 217.475V148.51H298.724V252.401C300.247 252.122 301.787 251.944 303.334 251.87H304.309C308.382 251.591 312.436 251.088 316.453 250.363C319.467 249.742 322.481 248.944 325.318 248.235C334.731 245.559 343.694 241.496 351.911 236.179C357.879 232.265 363.407 227.718 368.399 222.617C387.242 203.737 397.825 178.153 397.825 151.479C397.825 124.805 387.242 99.2212 368.399 80.3417Z" fill="white"/>
</g>
</g>
</g>
<defs>
<filter id="filter0_i_180_125" x="0" y="-15.5811" width="468" height="483.581" filterUnits="userSpaceOnUse" color-interpolation-filters="sRGB">
<feFlood flood-opacity="0" result="BackgroundImageFix"/>
<feBlend mode="normal" in="SourceGraphic" in2="BackgroundImageFix" result="shape"/>
<feColorMatrix in="SourceAlpha" type="matrix" values="0 0 0 0 0 0 0 0 0 0 0 0 0 0 0 0 0 0 127 0" result="hardAlpha"/>
<feOffset dy="-32.9218"/>
<feGaussianBlur stdDeviation="7.79054"/>
<feComposite in2="hardAlpha" operator="arithmetic" k2="-1" k3="1"/>
<feColorMatrix type="matrix" values="0 0 0 0 0 0 0 0 0 0 0 0 0 0 0 0 0 0 0.25 0"/>
<feBlend mode="normal" in2="shape" result="effect1_innerShadow_180_125"/>
</filter>
<filter id="filter1_i_180_125" x="67.0195" y="51.1904" width="330.805" height="345.389" filterUnits="userSpaceOnUse" color-interpolation-filters="sRGB">
<feFlood flood-opacity="0" result="BackgroundImageFix"/>
<feBlend mode="normal" in="SourceGraphic" in2="BackgroundImageFix" result="shape"/>
<feColorMatrix in="SourceAlpha" type="matrix" values="0 0 0 0 0 0 0 0 0 0 0 0 0 0 0 0 0 0 127 0" result="hardAlpha"/>
<feOffset dy="14.4459"/>
<feGaussianBlur stdDeviation="10.9576"/>
<feComposite in2="hardAlpha" operator="arithmetic" k2="-1" k3="1"/>
<feColorMatrix type="matrix" values="0 0 0 0 0 0 0 0 0 0 0 0 0 0 0 0 0 0 0.25 0"/>
<feBlend mode="normal" in2="shape" result="effect1_innerShadow_180_125"/>
</filter>
<linearGradient id="paint0_linear_180_125" x1="166.815" y1="-16.1656" x2="187" y2="415.603" gradientUnits="userSpaceOnUse">
<stop stop-color="#564AD9"/>
<stop offset="1" stop-color="#3A299E"/>
</linearGradient>
<clipPath id="clip0_180_125">
<rect width="468" height="468" fill="white"/>
</clipPath>
</defs>
</svg>
