<svg width="20" height="20" viewBox="0 0 29 29" fill="none" xmlns="http://www.w3.org/2000/svg">
<path d="M16.2558 25.675C17.2795 24.6386 18.0364 23.3693 18.4617 21.976C18.4777 21.9295 18.4902 21.8818 18.4992 21.8335V10.954H16.2483L16.2558 25.675Z" fill="white"/>
<path d="M16.2558 25.675C17.2795 24.6386 18.0364 23.3693 18.4617 21.976C18.4777 21.9295 18.4902 21.8818 18.4992 21.8335V10.954H16.2483L16.2558 25.675Z" fill="url(#paint0_linear_190_14)"/>
<path d="M12.504 28.0085C13.0235 27.8445 13.526 27.6309 14.0046 27.3707C14.263 27.2377 14.5135 27.0899 14.7549 26.9281V16.9565H12.504V28.0085Z" fill="white"/>
<path d="M12.504 28.0085C13.0235 27.8445 13.526 27.6309 14.0046 27.3707C14.263 27.2377 14.5135 27.0899 14.7549 26.9281V16.9565H12.504V28.0085Z" fill="url(#paint1_linear_190_14)"/>
<path d="M25.9117 2.93324C24.7535 1.78457 23.2896 0.993015 21.6943 0.652869C20.099 0.312722 18.4395 0.438322 16.9135 1.01471C15.3876 1.59109 14.0595 2.59396 13.0874 3.90386C12.1153 5.21376 11.5403 6.77548 11.4307 8.40298V8.47051C11.4541 8.89708 11.3177 9.31706 11.0481 9.64849C10.8769 9.79453 10.6768 9.90277 10.4608 9.96613C10.2449 10.0295 10.018 10.0465 9.79508 10.0161H9.63751C7.5345 10.0147 5.49405 10.7315 3.85405 12.048C2.21404 13.3645 1.07284 15.2016 0.619415 17.2551C0.165988 19.3087 0.427528 21.4555 1.36073 23.3401C2.29393 25.2248 3.84282 26.7341 5.75092 27.6183C6.23588 27.8382 6.73769 28.0189 7.25154 28.1586C7.49914 28.2186 7.74674 28.2861 8.00184 28.3311C8.25695 28.3762 8.49705 28.3987 8.75215 28.4287C9.00726 28.4587 9.25486 28.4662 9.50246 28.4662C9.75234 28.4812 10.0029 28.4812 10.2528 28.4662C10.5079 28.4662 10.7555 28.4212 11.0031 28.3912V19.2074H8.75215V25.9602C8.49892 25.9309 8.24816 25.8833 8.00184 25.8176C7.19347 25.6276 6.42925 25.2837 5.75092 24.8047C5.43233 24.5776 5.13135 24.3268 4.85055 24.0544C3.88121 23.1142 3.216 21.905 2.94085 20.583C2.66569 19.261 2.79322 17.8868 3.30697 16.6379C3.82072 15.3891 4.69708 14.323 5.82288 13.5773C6.94869 12.8316 8.27221 12.4405 9.62251 12.4546H9.67503C10.2414 12.5127 10.8137 12.446 11.3516 12.2594C11.8895 12.0727 12.3801 11.7706 12.7888 11.3742C13.5037 10.6204 13.9036 9.62194 13.9068 8.58305C14.0001 7.12156 14.6245 5.74461 15.6625 4.71147C16.748 3.53741 18.2554 2.84265 19.8532 2.78003C20.6443 2.74903 21.4338 2.87415 22.1766 3.14826C22.9194 3.42237 23.6009 3.84009 24.1822 4.37758C24.7636 4.91507 25.2333 5.5618 25.5647 6.28085C25.8961 6.99989 26.0826 7.77717 26.1137 8.5683C26.1447 9.35943 26.0195 10.1489 25.7454 10.8917C25.4713 11.6345 25.0536 12.316 24.5161 12.8973C24.4193 13.022 24.314 13.1398 24.201 13.25C23.646 13.8023 22.9884 14.2407 22.2652 14.5405V8.7031H20.0143V17.4967C20.1432 17.473 20.2735 17.458 20.4044 17.4517H20.487C20.8317 17.4281 21.1748 17.3855 21.5149 17.3241C21.77 17.2716 22.0251 17.2041 22.2652 17.1441C23.062 16.9175 23.8206 16.5736 24.5161 16.1236C25.0212 15.7923 25.4891 15.4074 25.9117 14.9757C27.5066 13.3777 28.4023 11.2122 28.4023 8.95446C28.4023 6.69673 27.5066 4.53123 25.9117 2.93324Z" fill="white"/>
<path d="M25.9117 2.93324C24.7535 1.78457 23.2896 0.993015 21.6943 0.652869C20.099 0.312722 18.4395 0.438322 16.9135 1.01471C15.3876 1.59109 14.0595 2.59396 13.0874 3.90386C12.1153 5.21376 11.5403 6.77548 11.4307 8.40298V8.47051C11.4541 8.89708 11.3177 9.31706 11.0481 9.64849C10.8769 9.79453 10.6768 9.90277 10.4608 9.96613C10.2449 10.0295 10.018 10.0465 9.79508 10.0161H9.63751C7.5345 10.0147 5.49405 10.7315 3.85405 12.048C2.21404 13.3645 1.07284 15.2016 0.619415 17.2551C0.165988 19.3087 0.427528 21.4555 1.36073 23.3401C2.29393 25.2248 3.84282 26.7341 5.75092 27.6183C6.23588 27.8382 6.73769 28.0189 7.25154 28.1586C7.49914 28.2186 7.74674 28.2861 8.00184 28.3311C8.25695 28.3762 8.49705 28.3987 8.75215 28.4287C9.00726 28.4587 9.25486 28.4662 9.50246 28.4662C9.75234 28.4812 10.0029 28.4812 10.2528 28.4662C10.5079 28.4662 10.7555 28.4212 11.0031 28.3912V19.2074H8.75215V25.9602C8.49892 25.9309 8.24816 25.8833 8.00184 25.8176C7.19347 25.6276 6.42925 25.2837 5.75092 24.8047C5.43233 24.5776 5.13135 24.3268 4.85055 24.0544C3.88121 23.1142 3.216 21.905 2.94085 20.583C2.66569 19.261 2.79322 17.8868 3.30697 16.6379C3.82072 15.3891 4.69708 14.323 5.82288 13.5773C6.94869 12.8316 8.27221 12.4405 9.62251 12.4546H9.67503C10.2414 12.5127 10.8137 12.446 11.3516 12.2594C11.8895 12.0727 12.3801 11.7706 12.7888 11.3742C13.5037 10.6204 13.9036 9.62194 13.9068 8.58305C14.0001 7.12156 14.6245 5.74461 15.6625 4.71147C16.748 3.53741 18.2554 2.84265 19.8532 2.78003C20.6443 2.74903 21.4338 2.87415 22.1766 3.14826C22.9194 3.42237 23.6009 3.84009 24.1822 4.37758C24.7636 4.91507 25.2333 5.5618 25.5647 6.28085C25.8961 6.99989 26.0826 7.77717 26.1137 8.5683C26.1447 9.35943 26.0195 10.1489 25.7454 10.8917C25.4713 11.6345 25.0536 12.316 24.5161 12.8973C24.4193 13.022 24.314 13.1398 24.201 13.25C23.646 13.8023 22.9884 14.2407 22.2652 14.5405V8.7031H20.0143V17.4967C20.1432 17.473 20.2735 17.458 20.4044 17.4517H20.487C20.8317 17.4281 21.1748 17.3855 21.5149 17.3241C21.77 17.2716 22.0251 17.2041 22.2652 17.1441C23.062 16.9175 23.8206 16.5736 24.5161 16.1236C25.0212 15.7923 25.4891 15.4074 25.9117 14.9757C27.5066 13.3777 28.4023 11.2122 28.4023 8.95446C28.4023 6.69673 27.5066 4.53123 25.9117 2.93324Z" fill="url(#paint2_linear_190_14)"/>
<defs>
<linearGradient id="paint0_linear_190_14" x1="7.85083" y1="1.01599" x2="17.4577" y2="19.8911" gradientUnits="userSpaceOnUse">
<stop stop-color="#29DE71"/>
<stop offset="1" stop-color="#1DCB97"/>
</linearGradient>
<linearGradient id="paint1_linear_190_14" x1="7.85083" y1="1.01599" x2="17.4577" y2="19.8911" gradientUnits="userSpaceOnUse">
<stop stop-color="#29DE71"/>
<stop offset="1" stop-color="#1DCB97"/>
</linearGradient>
<linearGradient id="paint2_linear_190_14" x1="7.85083" y1="1.01599" x2="17.4577" y2="19.8911" gradientUnits="userSpaceOnUse">
<stop stop-color="#29DE71"/>
<stop offset="1" stop-color="#1DCB97"/>
</linearGradient>
</defs>
</svg>
