<svg width="28" height="28" viewBox="0 0 56 56" fill="none" xmlns="http://www.w3.org/2000/svg">
<g filter="url(#filter0_i_178_119)">
<path d="M32.044 40.6107V50.4914C34.0562 48.4543 35.544 45.9595 36.3798 43.2209C36.4112 43.1295 36.4359 43.0358 36.4535 42.9407V21.5571H32.0293L32.044 40.6107Z" fill="white"/>
<path d="M24.6699 49.902V55.0783C25.691 54.7559 26.6787 54.3361 27.6194 53.8247C28.1273 53.5633 28.6197 53.2728 29.0941 52.9547V33.3555H24.6699V49.902Z" fill="white"/>
<path d="M51.0235 5.7926C48.7471 3.53488 45.8698 1.97907 42.7342 1.31052C39.5985 0.641956 36.3368 0.888822 33.3376 2.02171C30.3383 3.15459 27.7279 5.12574 25.8173 7.70036C23.9067 10.275 22.7764 13.3445 22.5611 16.5434V16.6761C22.607 17.5146 22.3389 18.34 21.809 18.9914C21.4725 19.2785 21.0792 19.4912 20.6548 19.6158C20.2304 19.7403 19.7845 19.7738 19.3462 19.7141H19.0365C14.903 19.7112 10.8925 21.1202 7.6691 23.7077C4.44567 26.2952 2.20264 29.906 1.31142 33.9423C0.420207 37.9786 0.934265 42.1982 2.76848 45.9024C4.60269 49.6067 7.64703 52.5734 11.3974 54.3113C12.3506 54.7435 13.3369 55.0986 14.3469 55.3731C14.8335 55.4911 15.3202 55.6238 15.8216 55.7123C16.323 55.8008 16.7949 55.845 17.2963 55.904C17.7978 55.963 18.2844 55.9777 18.7711 55.9777C19.2622 56.0072 19.7547 56.0072 20.2458 55.9777C20.7472 55.9777 21.2339 55.8892 21.7205 55.8302V37.7795H17.2963V51.0521C16.7986 50.9946 16.3057 50.901 15.8216 50.7719C14.2328 50.3985 12.7307 49.7225 11.3974 48.781C10.7712 48.3347 10.1796 47.8417 9.62774 47.3063C7.7225 45.4584 6.41503 43.0818 5.8742 40.4833C5.33338 37.8848 5.58404 35.1838 6.59382 32.7293C7.60359 30.2747 9.3261 28.1792 11.5389 26.7135C13.7516 25.2478 16.353 24.4792 19.007 24.5069H19.1103C20.2236 24.621 21.3483 24.49 22.4056 24.1231C23.4629 23.7563 24.427 23.1624 25.2304 22.3833C26.6355 20.9017 27.4215 18.9393 27.4278 16.8973C27.6112 14.0248 28.8386 11.3183 30.8786 9.28771C33.0122 6.98009 35.9751 5.61454 39.1155 5.49146C40.6705 5.43052 42.2222 5.67646 43.6821 6.21522C45.1421 6.75398 46.4816 7.57502 47.6242 8.63146C48.7668 9.6879 49.6902 10.959 50.3415 12.3723C50.9929 13.7856 51.3595 15.3134 51.4205 16.8683C51.4814 18.4233 51.2355 19.9751 50.6967 21.435C50.1579 22.8949 49.3369 24.2344 48.2805 25.377C48.0902 25.6221 47.8832 25.8536 47.6611 26.0702C46.5704 27.1557 45.2778 28.0174 43.8563 28.6067V17.1333H39.4321V34.4171C39.6854 34.3706 39.9416 34.341 40.1989 34.3287H40.3612C41.0387 34.2824 41.7132 34.1987 42.3815 34.078C42.8829 33.9747 43.3844 33.842 43.8563 33.724C45.4224 33.2788 46.9135 32.6028 48.2805 31.7184C49.2733 31.0671 50.193 30.3106 51.0235 29.462C54.1583 26.3212 55.9189 22.0649 55.9189 17.6273C55.9189 13.1897 54.1583 8.93346 51.0235 5.7926Z" fill="white"/>
</g>
<defs>
<filter id="filter0_i_178_119" x="0.884766" y="0.942871" width="55.0332" height="57.4604" filterUnits="userSpaceOnUse" color-interpolation-filters="sRGB">
<feFlood flood-opacity="0" result="BackgroundImageFix"/>
<feBlend mode="normal" in="SourceGraphic" in2="BackgroundImageFix" result="shape"/>
<feColorMatrix in="SourceAlpha" type="matrix" values="0 0 0 0 0 0 0 0 0 0 0 0 0 0 0 0 0 0 127 0" result="hardAlpha"/>
<feOffset dy="2.40327"/>
<feGaussianBlur stdDeviation="1.82295"/>
<feComposite in2="hardAlpha" operator="arithmetic" k2="-1" k3="1"/>
<feColorMatrix type="matrix" values="0 0 0 0 0 0 0 0 0 0 0 0 0 0 0 0 0 0 0.25 0"/>
<feBlend mode="normal" in2="shape" result="effect1_innerShadow_178_119"/>
</filter>
</defs>
</svg>
