<svg width="106" height="53" viewBox="0 0 106 53" fill="none" xmlns="http://www.w3.org/2000/svg">
<mask id="path-1-inside-1_281_101" fill="white">
<path d="M4.63341e-06 -9.26681e-06C4.02494e-06 6.96005 1.37089 13.852 4.03439 20.2822C6.69789 26.7125 10.6018 32.5551 15.5233 37.4767C20.4448 42.3982 26.2875 46.3021 32.7178 48.9656C39.148 51.6291 46.0399 53 53 53C59.9601 53 66.852 51.6291 73.2822 48.9656C79.7125 46.3021 85.5552 42.3982 90.4767 37.4767C95.3982 32.5552 99.3021 26.7125 101.966 20.2822C104.629 13.852 106 6.96005 106 -4.63341e-06L53 -4.63341e-06L4.63341e-06 -9.26681e-06Z"/>
</mask>
<path d="M4.63341e-06 -9.26681e-06C4.02494e-06 6.96005 1.37089 13.852 4.03439 20.2822C6.69789 26.7125 10.6018 32.5551 15.5233 37.4767C20.4448 42.3982 26.2875 46.3021 32.7178 48.9656C39.148 51.6291 46.0399 53 53 53C59.9601 53 66.852 51.6291 73.2822 48.9656C79.7125 46.3021 85.5552 42.3982 90.4767 37.4767C95.3982 32.5552 99.3021 26.7125 101.966 20.2822C104.629 13.852 106 6.96005 106 -4.63341e-06L53 -4.63341e-06L4.63341e-06 -9.26681e-06Z" stroke="url(#paint0_linear_281_101)" stroke-width="0.2" mask="url(#path-1-inside-1_281_101)"/>
<defs>
<linearGradient id="paint0_linear_281_101" x1="53" y1="-53" x2="52.8891" y2="52.9999" gradientUnits="userSpaceOnUse">
<stop offset="0.568096" stop-color="#363636" stop-opacity="0"/>
<stop offset="0.766447" stop-color="#363636"/>
<stop offset="1" stop-color="#777777"/>
</linearGradient>
</defs>
</svg>
