<svg width="78" height="78" viewBox="0 0 78 78" fill="none" xmlns="http://www.w3.org/2000/svg">
<path d="M33.3798 59.9131V59.8198H33.501C35.1526 60.2263 36.8459 60.4391 38.5466 60.454C38.5466 60.454 38.5466 60.454 38.6026 60.454C38.6585 60.454 38.6026 60.454 38.6026 60.5286C38.8731 64.6136 39.1622 68.6799 39.442 72.7463L39.6845 75.824C39.7311 76.4675 39.7684 77.1204 39.8337 77.8198C35.9399 77.8825 32.0565 77.3991 28.2969 76.3836L29.9477 71.0489L30.9642 67.7473C31.785 65.1172 32.5777 62.5245 33.3798 59.9131Z" fill="#EC6624"/>
<path d="M26.22 56.5653L26.2853 56.5C26.3191 56.5175 26.3505 56.5395 26.3785 56.5653C27.77 57.5447 29.2727 58.3556 30.8552 58.9808H30.9112C30.9155 59.0086 30.9155 59.037 30.9112 59.0648C29.6894 62.9632 28.4956 66.8617 27.2832 70.7601L26.3506 73.6513C26.1547 74.2669 25.9588 74.8824 25.763 75.5166C22.1025 74.1759 18.649 72.3266 15.5039 70.0233L18.9827 65.6492L21.1184 62.9352C22.8625 60.8461 24.5506 58.7197 26.22 56.5653Z" fill="#DC137A"/>
<path d="M20.7535 50.8665L20.8374 50.8198L20.9027 50.9224C21.8431 52.3356 22.9448 53.6345 24.1856 54.7929H24.2323L24.1856 54.8582C21.6364 58.054 19.0996 61.253 16.5753 64.4551L14.71 66.824C14.3089 67.3276 13.8986 67.8406 13.4789 68.3908C10.5517 65.822 7.99939 62.8553 5.89648 59.5774L10.7089 56.7794L13.6841 55.026C16.081 53.6364 18.4126 52.2654 20.7535 50.8665Z" fill="#F49C1F"/>
<path d="M17.7204 43.5732H17.8043C17.8076 43.6105 17.8076 43.6479 17.8043 43.6852C18.1803 45.3466 18.7565 46.9563 19.5204 48.479C19.5204 48.479 19.5204 48.479 19.5204 48.5349H19.4551C15.9391 50.6427 12.4323 52.7132 8.90692 54.7743L6.30485 56.3038C5.74526 56.6303 5.17635 56.9567 4.57946 57.3204C2.78272 53.8667 1.47984 50.1779 0.708984 46.3618L6.23024 45.4292L9.63439 44.8696C12.3391 44.4593 15.0344 44.0271 17.7204 43.5732Z" fill="#D18E2A"/>
<path d="M17.5176 35.7206H17.6108C17.6108 35.7206 17.6108 35.7952 17.6108 35.8418C17.3582 37.5239 17.3018 39.2296 17.443 40.9247C17.443 40.9247 17.443 40.9807 17.443 40.99H17.359C13.3207 41.6335 9.30098 42.2957 5.23466 42.9485L2.2502 43.4335L0.310298 43.7506C-0.119737 39.8803 -0.00672616 35.9689 0.64605 32.1299L6.14865 33.2957L9.53414 34.0045C12.1953 34.5765 14.8564 35.1485 17.5176 35.7206Z" fill="#4C7738"/>
<path d="M20.1842 28.2595L20.2681 28.3062C20.2681 28.3062 20.2681 28.3715 20.2028 28.4181C19.3563 29.8873 18.6893 31.453 18.2163 33.0813C18.2163 33.0813 18.2163 33.0813 18.2163 33.1373H18.1324C14.1407 32.2699 10.1489 31.4399 6.15722 30.5912L3.19141 29.9663C2.56654 29.8357 1.93234 29.6958 1.24219 29.5652C2.23124 25.7973 3.74446 22.1869 5.73753 18.8398L10.4008 21.8989L13.2919 23.7642C15.58 25.2751 17.8774 26.7735 20.1842 28.2595Z" fill="#0977B8"/>
<path d="M25.3597 22.2711L25.4157 22.3457C25.386 22.3723 25.3549 22.3972 25.3224 22.4203C24.0013 23.4917 22.8116 24.7158 21.7784 26.067V26.1136H21.7038C18.2903 23.8659 14.8675 21.6462 11.4447 19.4172L8.87993 17.7291C8.339 17.3747 7.79806 17.011 7.20117 16.6379C9.48892 13.4772 12.2075 10.6519 15.2779 8.24414L18.5888 12.8514L20.6033 15.6493C22.1763 17.8379 23.7618 20.0452 25.3597 22.2711Z" fill="#3FA648"/>
<path d="M32.3457 18.5687V18.662H32.2338C30.6013 19.1812 29.036 19.8918 27.5706 20.7791C27.5706 20.7791 27.5239 20.7791 27.5239 20.7791V20.7978C25.1457 17.4682 22.7581 14.1667 20.3799 10.8464L18.5892 8.38427C18.2161 7.86199 17.8338 7.32105 17.4141 6.76147C20.6962 4.6492 24.2598 3.01027 27.9996 1.89307C28.4659 3.68374 28.9322 5.49307 29.3985 7.3024L30.2752 10.6413C30.956 13.3366 31.6462 15.9387 32.3457 18.5687Z" fill="#0C4D84"/>
<path d="M40.1893 17.6456V17.7389H40.0401C38.3396 17.638 36.6331 17.7414 34.9572 18.0467H34.9012V17.972C33.894 14.0083 32.8588 10.0632 31.8328 6.10881L31.0774 3.18964C30.9095 2.56477 30.7137 1.93057 30.5645 1.21243C34.3803 0.438952 38.286 0.206619 42.1665 0.522276L41.523 6.11814L41.1313 9.55027C40.7956 12.2456 40.4878 14.9409 40.1893 17.6456Z" fill="#1F3363"/>
<path d="M47.8381 19.6137V19.6977L47.7262 19.651C46.1669 18.9363 44.5256 18.4163 42.8392 18.1028H42.7832V18.0002C43.2775 13.9432 43.7158 9.89557 44.2102 5.87587L44.5552 2.87276C44.6392 2.23856 44.7138 1.58571 44.7884 0.88623C48.6354 1.52104 52.3743 2.69202 55.8962 4.36499L53.2848 9.308L51.634 12.4044C50.3563 14.8013 49.0972 17.1982 47.8381 19.6137Z" fill="#E22026"/>
<path d="M54.2652 24.2204L54.1906 24.2763C54.1906 24.2763 54.1439 24.2763 54.1066 24.1924C52.9177 22.9755 51.5906 21.9019 50.1522 20.9934H50.0962C50.0929 20.9686 50.0929 20.9436 50.0962 20.9188C52.0175 17.3095 53.9108 13.7001 55.8134 10.0908L57.231 7.41411C57.5294 6.8452 57.8372 6.26696 58.1636 5.64209C61.5114 7.63003 64.5631 10.0789 67.2289 12.9167L63.0134 16.582L60.4113 18.8483C58.3533 20.6328 56.3045 22.4235 54.2652 24.2204Z" fill="#D6A32A"/>
<path d="M58.5918 30.8334H58.4986C58.4986 30.8334 58.4986 30.7774 58.4986 30.7214C57.8085 29.1621 56.935 27.6905 55.8965 26.338V26.2914L55.9524 26.2354C59.0395 23.596 62.1079 20.8821 65.2229 18.2054L67.5079 16.2188L68.9535 14.9038C71.3577 17.9656 73.3199 21.35 74.7825 24.9577L69.5317 26.823L66.2861 27.9981C63.7027 28.9681 61.1473 29.8914 58.5918 30.8334Z" fill="#289446"/>
<path d="M60.2326 38.518H60.1393V38.3968C60.0826 36.6963 59.8228 35.0086 59.3652 33.3698C59.3652 33.3698 59.3652 33.3232 59.3652 33.3139H59.4398C63.273 31.9895 67.0875 30.5439 70.9487 29.1916L73.7466 28.1657C74.3528 27.9512 74.9684 27.7367 75.6119 27.4849C76.7469 31.2086 77.3528 35.0733 77.4119 38.9657L71.816 38.8351L68.3652 38.7605C65.6699 38.6673 62.9559 38.602 60.2326 38.518Z" fill="#C2222A"/>
<path d="M58.9746 46.3621H58.8906C58.8906 46.3621 58.8906 46.2968 58.8906 46.2408C59.4477 44.6354 59.8139 42.9701 59.9818 41.2792C59.9818 41.2792 59.9818 41.2325 59.9818 41.2139H60.0658C64.1507 41.3258 68.2264 41.4097 72.302 41.503L75.3238 41.5776C75.9767 41.5776 76.6295 41.5776 77.329 41.5776C77.037 45.4606 76.2051 49.2839 74.8575 52.9372L69.7 50.7921L66.501 49.4771C64.0108 48.4232 61.4927 47.3786 58.9746 46.3621Z" fill="#E53326"/>
<path d="M54.9648 53.1797V53.1144L55.0395 53.0211C56.1343 51.7239 57.0734 50.3028 57.8374 48.7869C57.8374 48.7869 57.8374 48.7869 57.8374 48.731H57.912C61.6426 50.3071 65.4571 51.8553 69.225 53.3942L72.0229 54.5507C72.6105 54.8025 73.2167 55.0636 73.8882 55.3154C72.2139 58.8308 70.0573 62.0954 67.4809 65.0149L63.4053 61.1818L60.8965 58.8035C58.9379 56.9196 56.9607 55.045 54.9648 53.1797Z" fill="#01A7D7"/>
<path d="M48.8066 58.1041V58.0202L48.9092 57.9549C50.4065 57.1464 51.8028 56.1634 53.0688 55.0264C53.0948 55.0394 53.1173 55.0586 53.1341 55.0823L61.9849 63.5414L64.1766 65.5652C64.6336 66.0129 65.1093 66.4979 65.6222 66.9456C62.795 69.6207 59.6051 71.8844 56.1465 73.6699C55.3538 71.9912 54.5704 70.2937 53.7776 68.6057L52.3041 65.4906C51.1476 63.016 49.9818 60.5538 48.8066 58.1041Z" fill="#F9B718"/>
<path d="M41.2617 60.445V60.3517H41.383C43.0715 60.1438 44.7283 59.7303 46.3166 59.1206H46.3726C46.3744 59.1454 46.3744 59.1704 46.3726 59.1952C48.0887 62.9258 49.8327 66.5818 51.5674 70.2843L52.8825 73.0263C53.1529 73.6139 53.4327 74.2108 53.7405 74.8357C50.1326 76.3057 46.3376 77.2662 42.4648 77.6895C42.3405 75.8243 42.213 73.959 42.0824 72.0937L41.84 68.6522C41.6534 65.8729 41.4669 63.159 41.2617 60.445Z" fill="#941B32"/>
</svg>
