<svg width="79" height="79" viewBox="0 0 79 79" fill="none" xmlns="http://www.w3.org/2000/svg">
<path d="M34.3251 60.5273V60.4341H34.4463C36.0979 60.8405 37.7912 61.0534 39.4919 61.0683C39.4919 61.0683 39.4919 61.0683 39.5479 61.0683C39.6039 61.0683 39.5479 61.0683 39.5479 61.1429C39.8184 65.2279 40.1075 69.2942 40.3873 73.3605L40.6298 76.4382C40.6764 77.0818 40.7137 77.7346 40.779 78.4341C36.8852 78.4968 33.0018 78.0133 29.2422 76.9978L30.893 71.6631L31.9095 68.3616C32.7303 65.7315 33.523 63.1387 34.3251 60.5273Z" stroke="url(#paint0_linear_265_288)" stroke-width="0.233161" stroke-miterlimit="10"/>
<path d="M27.1653 57.1791L27.2306 57.1138C27.2644 57.1313 27.2958 57.1532 27.3238 57.1791C28.7153 58.1585 30.218 58.9693 31.8005 59.5946H31.8565C31.8609 59.6224 31.8609 59.6507 31.8565 59.6785C30.6347 63.577 29.4409 67.4754 28.2285 71.3739L27.2959 74.2651C27.1 74.8806 26.9042 75.4962 26.7083 76.1304C23.0478 74.7896 19.5943 72.9404 16.4492 70.6371L19.928 66.263L22.0637 63.549C23.8078 61.4599 25.4959 59.3335 27.1653 57.1791Z" stroke="url(#paint1_linear_265_288)" stroke-width="0.233161" stroke-miterlimit="10"/>
<path d="M21.6988 51.4802L21.7828 51.4336L21.848 51.5362C22.7884 52.9494 23.8901 54.2483 25.1309 55.4067H25.1776L25.1309 55.4719C22.5817 58.6678 20.0449 61.8668 17.5206 65.0688L15.6553 67.4378C15.2542 67.9414 14.8439 68.4543 14.4242 69.0046C11.497 66.4358 8.9447 63.4691 6.8418 60.1911L11.6542 57.3932L14.6294 55.6398C17.0263 54.2502 19.3579 52.8792 21.6988 51.4802Z" stroke="url(#paint2_linear_265_288)" stroke-width="0.233161" stroke-miterlimit="10"/>
<path d="M18.6657 44.1875H18.7497C18.753 44.2247 18.753 44.2622 18.7497 44.2994C19.1256 45.9609 19.7018 47.5706 20.4657 49.0932C20.4657 49.0932 20.4657 49.0932 20.4657 49.1492H20.4004C16.8844 51.2569 13.3776 53.3274 9.85224 55.3886L7.25016 56.9181C6.69057 57.2445 6.12166 57.5709 5.52477 57.9347C3.72803 54.481 2.42516 50.7921 1.6543 46.9761L7.17555 46.0435L10.5797 45.4839C13.2844 45.0735 15.9797 44.6414 18.6657 44.1875Z" stroke="url(#paint3_linear_265_288)" stroke-width="0.233161" stroke-miterlimit="10"/>
<path d="M18.4629 36.3348H18.5562C18.5562 36.3348 18.5562 36.4094 18.5562 36.4561C18.3035 38.1381 18.2471 39.8439 18.3883 41.539C18.3883 41.539 18.3883 41.5949 18.3883 41.6043H18.3043C14.266 42.2478 10.2463 42.91 6.17997 43.5628L3.19551 44.0478L1.25561 44.3649C0.825576 40.4946 0.938586 36.5832 1.59136 32.7441L7.09396 33.9099L10.4795 34.6188C13.1406 35.1908 15.8017 35.7628 18.4629 36.3348Z" stroke="url(#paint4_linear_265_288)" stroke-width="0.233161" stroke-miterlimit="10"/>
<path d="M21.1295 28.8738L21.2134 28.9204C21.2134 28.9204 21.2134 28.9857 21.1481 29.0324C20.3016 30.5016 19.6347 32.0672 19.1616 33.6956C19.1616 33.6956 19.1616 33.6956 19.1616 33.7515H19.0777C15.086 32.8842 11.0942 32.0541 7.10253 31.2054L4.13673 30.5805C3.51185 30.45 2.87766 30.3101 2.1875 30.1795C3.17656 26.4116 4.68978 22.8012 6.68284 19.4541L11.3461 22.5132L14.2373 24.3785C16.5253 25.8893 18.8228 27.3878 21.1295 28.8738Z" stroke="url(#paint5_linear_265_288)" stroke-width="0.233161" stroke-miterlimit="10"/>
<path d="M26.3051 22.8858L26.361 22.9605C26.3313 22.987 26.3002 23.012 26.2678 23.0351C24.9466 24.1064 23.757 25.3305 22.7237 26.6817V26.7283H22.6491C19.2356 24.4807 15.8128 22.261 12.39 20.032L9.82524 18.3439C9.28431 17.9895 8.74338 17.6257 8.14648 17.2527C10.4342 14.0919 13.1528 11.2666 16.2232 8.85889L19.5341 13.4661L21.5486 16.2641C23.1216 18.4527 24.7071 20.6599 26.3051 22.8858Z" stroke="url(#paint6_linear_265_288)" stroke-width="0.233161" stroke-miterlimit="10"/>
<path d="M33.291 19.183V19.2763H33.1791C31.5466 19.7954 29.9813 20.5061 28.5159 21.3934C28.5159 21.3934 28.4692 21.3934 28.4692 21.3934V21.412C26.091 18.0825 23.7034 14.7809 21.3252 11.4607L19.5345 8.99852C19.1614 8.47624 18.7791 7.93531 18.3594 7.37572C21.6415 5.26346 25.2051 3.62453 28.9449 2.50732C29.4112 4.298 29.8775 6.10733 30.3438 7.91666L31.2205 11.2555C31.9014 13.9509 32.5915 16.5529 33.291 19.183Z" stroke="url(#paint7_linear_265_288)" stroke-width="0.233161" stroke-miterlimit="10"/>
<path d="M41.1346 18.2599V18.3531H40.9854C39.2849 18.2523 37.5784 18.3556 35.9025 18.6609H35.8466V18.5863C34.8393 14.6226 33.8041 10.6775 32.7782 6.72307L32.0227 3.8039C31.8548 3.17902 31.659 2.54483 31.5098 1.82669C35.3256 1.05321 39.2313 0.820877 43.1119 1.13653L42.4683 6.7324L42.0766 10.1645C41.7409 12.8599 41.4331 15.5552 41.1346 18.2599Z" stroke="url(#paint8_linear_265_288)" stroke-width="0.233161" stroke-miterlimit="10"/>
<path d="M48.7834 20.228V20.3119L48.6715 20.2653C47.1122 19.5505 45.4709 19.0306 43.7845 18.7171H43.7285V18.6145C44.2228 14.5575 44.6612 10.5098 45.1555 6.49013L45.5005 3.48702C45.5845 2.85282 45.6591 2.19997 45.7337 1.50049C49.5807 2.1353 53.3197 3.30628 56.8415 4.97925L54.2301 9.92226L52.5793 13.0186C51.3016 15.4155 50.0425 17.8124 48.7834 20.228Z" stroke="url(#paint9_linear_265_288)" stroke-width="0.233161" stroke-miterlimit="10"/>
<path d="M55.2105 24.8351L55.1359 24.8911C55.1359 24.8911 55.0892 24.8911 55.0519 24.8071C53.863 23.5902 52.5359 22.5166 51.0975 21.6082H51.0416C51.0382 21.5834 51.0382 21.5583 51.0416 21.5335C52.9628 17.9242 54.8561 14.3149 56.7587 10.7055L58.1763 8.02886C58.4747 7.45995 58.7825 6.88171 59.1089 6.25684C62.4568 8.24478 65.5084 10.6936 68.1742 13.5315L63.9587 17.1967L61.3566 19.4631C59.2986 21.2475 57.2499 23.0382 55.2105 24.8351Z" stroke="url(#paint10_linear_265_288)" stroke-width="0.233161" stroke-miterlimit="10"/>
<path d="M59.5371 31.4476H59.4439C59.4439 31.4476 59.4439 31.3917 59.4439 31.3357C58.7538 29.7763 57.8803 28.3048 56.8418 26.9523V26.9056L56.8978 26.8497C59.9848 24.2103 63.0532 21.4963 66.1682 18.8196L68.4532 16.8331L69.8988 15.5181C72.303 18.5799 74.2652 21.9642 75.7278 25.572L70.4771 27.4373L67.2314 28.6124C64.648 29.5823 62.0926 30.5057 59.5371 31.4476Z" stroke="url(#paint11_linear_265_288)" stroke-width="0.233161" stroke-miterlimit="10"/>
<path d="M61.1779 39.1323H61.0846V39.0111C61.0279 37.3105 60.7681 35.6229 60.3105 33.9841C60.3105 33.9841 60.3105 33.9375 60.3105 33.9281H60.3852C64.2183 32.6038 68.0328 31.1582 71.894 29.8059L74.6919 28.78C75.2981 28.5654 75.9137 28.3509 76.5572 28.0991C77.6922 31.8228 78.2981 35.6876 78.3572 39.58L72.7613 39.4494L69.3106 39.3748C66.6152 39.2815 63.9012 39.2162 61.1779 39.1323Z" stroke="url(#paint12_linear_265_288)" stroke-width="0.233161" stroke-miterlimit="10"/>
<path d="M59.9179 46.9763H59.834C59.834 46.9763 59.834 46.911 59.834 46.8551C60.391 45.2497 60.7573 43.5844 60.9252 41.8934C60.9252 41.8934 60.9252 41.8468 60.9252 41.8281H61.0091C65.0941 41.94 69.1697 42.024 73.2454 42.1172L76.2672 42.1919C76.92 42.1919 77.5729 42.1919 78.2724 42.1919C77.9803 46.0748 77.1485 49.8981 75.8008 53.5515L70.6433 51.4064L67.4444 50.0913C64.9542 49.0375 62.4361 47.9929 59.9179 46.9763Z" stroke="url(#paint13_linear_265_288)" stroke-width="0.233161" stroke-miterlimit="10"/>
<path d="M55.9082 53.7939V53.7286L55.9828 53.6354C57.0777 52.3382 58.0168 50.9171 58.7807 49.4012C58.7807 49.4012 58.7807 49.4012 58.7807 49.3452H58.8554C62.5859 50.9214 66.4004 52.4696 70.1683 54.0084L72.9663 55.1649C73.5538 55.4167 74.16 55.6779 74.8315 55.9297C73.1572 59.4451 71.0007 62.7097 68.4243 65.6292L64.3486 61.796L61.8398 59.4178C59.8813 57.5338 57.9041 55.6592 55.9082 53.7939Z" stroke="url(#paint14_linear_265_288)" stroke-width="0.233161" stroke-miterlimit="10"/>
<path d="M49.752 58.7183V58.6344L49.8545 58.5691C51.3519 57.7607 52.7481 56.7776 54.0141 55.6406C54.0402 55.6536 54.0626 55.6729 54.0794 55.6966L62.9302 64.1557L65.1219 66.1795C65.5789 66.6272 66.0546 67.1121 66.5675 67.5598C63.7403 70.235 60.5504 72.4987 57.0919 74.2842C56.2991 72.6054 55.5157 70.908 54.7229 69.2199L53.2494 66.1049C52.0929 63.6303 50.9271 61.1681 49.752 58.7183Z" stroke="url(#paint15_linear_265_288)" stroke-width="0.233161" stroke-miterlimit="10"/>
<path d="M42.207 61.0587V60.9655H42.3283C44.0168 60.7575 45.6737 60.3441 47.262 59.7344H47.3179C47.3197 59.7592 47.3197 59.7841 47.3179 59.809C49.034 63.5396 50.778 67.1955 52.5127 70.8981L53.8278 73.6401C54.0982 74.2277 54.378 74.8246 54.6858 75.4494C51.0779 76.9195 47.2829 77.88 43.4101 78.3033C43.2858 76.438 43.1583 74.5727 43.0278 72.7074L42.7853 69.266C42.5987 66.4867 42.4122 63.7727 42.207 61.0587Z" stroke="url(#paint16_linear_265_288)" stroke-width="0.233161" stroke-miterlimit="10"/>
<defs>
<linearGradient id="paint0_linear_265_288" x1="35.0106" y1="60.4341" x2="35.0106" y2="78.4395" gradientUnits="userSpaceOnUse">
<stop stop-color="#77777788"/>
<stop offset="0.8" stop-color="#77777720"/>
<stop offset="1" stop-color="#77777710"/>
</linearGradient>
<linearGradient id="paint1_linear_265_288" x1="24.1545" y1="57.1138" x2="24.1545" y2="76.1304" gradientUnits="userSpaceOnUse">
<stop stop-color="#77777788"/>
<stop offset="0.8" stop-color="#77777720"/>
<stop offset="1" stop-color="#77777710"/>
</linearGradient>
<linearGradient id="paint2_linear_265_288" x1="16.0097" y1="51.4336" x2="16.0097" y2="69.0046" gradientUnits="userSpaceOnUse">
<stop stop-color="#77777788"/>
<stop offset="0.8" stop-color="#77777720"/>
<stop offset="1" stop-color="#77777710"/>
</linearGradient>
<linearGradient id="paint3_linear_265_288" x1="11.06" y1="44.1875" x2="11.06" y2="57.9347" gradientUnits="userSpaceOnUse">
<stop stop-color="#77777788"/>
<stop offset="0.8" stop-color="#77777720"/>
<stop offset="1" stop-color="#77777710"/>
</linearGradient>
<linearGradient id="paint4_linear_265_288" x1="9.77808" y1="32.7441" x2="9.77808" y2="44.3649" gradientUnits="userSpaceOnUse">
<stop stop-color="#77777788"/>
<stop offset="0.8" stop-color="#77777720"/>
<stop offset="1" stop-color="#77777710"/>
</linearGradient>
<linearGradient id="paint5_linear_265_288" x1="11.7005" y1="19.4541" x2="11.7005" y2="33.7515" gradientUnits="userSpaceOnUse">
<stop stop-color="#77777788"/>
<stop offset="0.8" stop-color="#77777720"/>
<stop offset="1" stop-color="#77777710"/>
</linearGradient>
<linearGradient id="paint6_linear_265_288" x1="17.2537" y1="8.85889" x2="17.2537" y2="26.7283" gradientUnits="userSpaceOnUse">
<stop stop-color="#77777788"/>
<stop offset="0.8" stop-color="#77777720"/>
<stop offset="1" stop-color="#77777710"/>
</linearGradient>
<linearGradient id="paint7_linear_265_288" x1="25.8252" y1="2.50732" x2="25.8252" y2="21.412" gradientUnits="userSpaceOnUse">
<stop stop-color="#77777788"/>
<stop offset="0.8" stop-color="#77777720"/>
<stop offset="1" stop-color="#77777710"/>
</linearGradient>
<linearGradient id="paint8_linear_265_288" x1="37.3108" y1="1" x2="37.3108" y2="18.6609" gradientUnits="userSpaceOnUse">
<stop stop-color="#77777788"/>
<stop offset="0.8" stop-color="#77777720"/>
<stop offset="1" stop-color="#77777710"/>
</linearGradient>
<linearGradient id="paint9_linear_265_288" x1="50.285" y1="1.50049" x2="50.285" y2="20.3119" gradientUnits="userSpaceOnUse">
<stop stop-color="#77777788"/>
<stop offset="0.8" stop-color="#77777720"/>
<stop offset="1" stop-color="#77777710"/>
</linearGradient>
<linearGradient id="paint10_linear_265_288" x1="59.6066" y1="6.25684" x2="59.6066" y2="24.8911" gradientUnits="userSpaceOnUse">
<stop stop-color="#77777788"/>
<stop offset="0.8" stop-color="#77777720"/>
<stop offset="1" stop-color="#77777710"/>
</linearGradient>
<linearGradient id="paint11_linear_265_288" x1="66.2848" y1="15.5181" x2="66.2848" y2="31.4476" gradientUnits="userSpaceOnUse">
<stop stop-color="#77777788"/>
<stop offset="0.8" stop-color="#77777720"/>
<stop offset="1" stop-color="#77777710"/>
</linearGradient>
<linearGradient id="paint12_linear_265_288" x1="69.3339" y1="28.0991" x2="69.3339" y2="39.58" gradientUnits="userSpaceOnUse">
<stop stop-color="#77777788"/>
<stop offset="0.8" stop-color="#77777720"/>
<stop offset="1" stop-color="#77777710"/>
</linearGradient>
<linearGradient id="paint13_linear_265_288" x1="69.0532" y1="41.8281" x2="69.0532" y2="53.5515" gradientUnits="userSpaceOnUse">
<stop stop-color="#77777788"/>
<stop offset="0.8" stop-color="#77777720"/>
<stop offset="1" stop-color="#77777710"/>
</linearGradient>
<linearGradient id="paint14_linear_265_288" x1="65.3699" y1="49.3452" x2="65.3699" y2="65.6292" gradientUnits="userSpaceOnUse">
<stop stop-color="#77777788"/>
<stop offset="0.8" stop-color="#77777720"/>
<stop offset="1" stop-color="#77777710"/>
</linearGradient>
<linearGradient id="paint15_linear_265_288" x1="58.1597" y1="55.6406" x2="58.1597" y2="74.2842" gradientUnits="userSpaceOnUse">
<stop stop-color="#77777788"/>
<stop offset="0.8" stop-color="#77777720"/>
<stop offset="1" stop-color="#77777710"/>
</linearGradient>
<linearGradient id="paint16_linear_265_288" x1="48.4464" y1="59.7344" x2="48.4464" y2="78.3033" gradientUnits="userSpaceOnUse">
<stop stop-color="#77777788"/>
<stop offset="0.8" stop-color="#77777720"/>
<stop offset="1" stop-color="#77777710"/>
</linearGradient>
</defs>
</svg>
